<svg width="325" height="300" viewBox="0 0 325 300" fill="none" xmlns="http://www.w3.org/2000/svg">
<g clip-path="url(#clip0_231_2)">
<path d="M253.591 158.822C214.662 158.822 183.108 190.423 183.108 229.405C183.108 268.392 214.662 300 253.591 300C292.513 300 324.067 268.392 324.067 229.405C324.067 190.423 292.513 158.822 253.591 158.822ZM70.479 158.825C31.556 158.829 0 190.423 0 229.408C0 268.392 31.556 299.997 70.479 299.997C109.405 299.997 140.961 268.392 140.961 229.408C140.961 190.423 109.405 158.825 70.4755 158.825H70.479ZM232.513 70.5874C232.513 109.57 200.959 141.182 162.037 141.182C123.107 141.182 91.5546 109.57 91.5546 70.5874C91.5546 31.6045 123.107 0 162.037 0C200.959 0 232.51 31.6045 232.51 70.5874H232.513Z" fill="url(#paint0_radial_231_2)"/>
</g>
<defs>
<radialGradient id="paint0_radial_231_2" cx="0" cy="0" r="1" gradientUnits="userSpaceOnUse" gradientTransform="translate(162.078 164.143) scale(214.856 198.9)">
<stop stop-color="#FFB900"/>
<stop offset="0.6" stop-color="#F95D8F"/>
<stop offset="0.999" stop-color="#F95353"/>
</radialGradient>
<clipPath id="clip0_231_2">
<rect width="325" height="300" fill="white"/>
</clipPath>
</defs>
</svg>
