<svg xmlns="http://www.w3.org/2000/svg" width="372.387" height="268.748" viewBox="0 0 372.387 268.748">
  <g id="Gruppe_52466" data-name="Gruppe 52466" transform="translate(8024.007 3613.036)">
    <g id="Gruppe_52361" data-name="Gruppe 52361" transform="translate(-8024.007 -3384.966)">
      <path id="Pfad_52324" data-name="Pfad 52324" d="M113,31.975a11.727,11.727,0,0,1,6.152-1.615,11.243,11.243,0,0,1,5.7,1.417,9.472,9.472,0,0,1,3.827,4.252H137.8a17.786,17.786,0,0,0-6.974-9.41,20.131,20.131,0,0,0-11.622-3.4A20.425,20.425,0,0,0,108.976,25.8a18.828,18.828,0,0,0-7.2,7.2,20.717,20.717,0,0,0-2.637,10.459,20.57,20.57,0,0,0,2.635,10.427,18.875,18.875,0,0,0,7.2,7.17,20.425,20.425,0,0,0,10.232,2.579,20.22,20.22,0,0,0,11.65-3.373,17.689,17.689,0,0,0,6.945-9.439h-9.127a9.635,9.635,0,0,1-3.827,4.281,11.067,11.067,0,0,1-5.7,1.445A11.715,11.715,0,0,1,113,54.929a10.977,10.977,0,0,1-4.2-4.591,15.1,15.1,0,0,1-1.5-6.889,15.037,15.037,0,0,1,1.5-6.916,11.037,11.037,0,0,1,4.2-4.564" transform="translate(-99.135 -23.142)" fill="#181819" fill-rule="evenodd"/>
      <path id="Pfad_52325" data-name="Pfad 52325" d="M161.651,32.851a17.794,17.794,0,0,0-16.44,0,14.8,14.8,0,0,0-5.812,5.7,16.713,16.713,0,0,0-2.125,8.5,17.072,17.072,0,0,0,2.07,8.5,14.487,14.487,0,0,0,5.7,5.7,16.541,16.541,0,0,0,8.164,2.012,17.149,17.149,0,0,0,8.306-2.012,15.114,15.114,0,0,0,5.895-5.7,16.369,16.369,0,0,0,2.183-8.5,16.7,16.7,0,0,0-2.127-8.5,14.785,14.785,0,0,0-5.811-5.7m-1.359,19.3a7.639,7.639,0,0,1-3.034,3.146,8.251,8.251,0,0,1-4.053,1.049,7.379,7.379,0,0,1-5.641-2.409,9.75,9.75,0,0,1-2.239-6.889,9.59,9.59,0,0,1,2.3-6.888,7.554,7.554,0,0,1,5.7-2.41,7.731,7.731,0,0,1,5.755,2.41,9.455,9.455,0,0,1,2.355,6.888,10.612,10.612,0,0,1-1.133,5.1" transform="translate(-96.457 -22.607)" fill="#181819" fill-rule="evenodd"/>
      <path id="Pfad_52326" data-name="Pfad 52326" d="M186.88,30.893a12.528,12.528,0,0,0-5.415,1.162,10.97,10.97,0,0,0-4.052,3.2V31.346h-7.937V62.754h7.937V45.406a8.066,8.066,0,0,1,1.9-5.753,6.8,6.8,0,0,1,5.19-2.013,6.634,6.634,0,0,1,5.1,2.013,8.147,8.147,0,0,1,1.871,5.753V62.754h7.937V44.329q0-6.349-3.458-9.893a12.11,12.11,0,0,0-9.071-3.543" transform="translate(-94.196 -22.603)" fill="#181819" fill-rule="evenodd"/>
      <path id="Pfad_52327" data-name="Pfad 52327" d="M215.279,37.586a6.657,6.657,0,0,1,4,1.162,6.253,6.253,0,0,1,2.3,3.2h8.562a14.21,14.21,0,0,0-5.13-8.193,15.485,15.485,0,0,0-9.667-2.92,15.91,15.91,0,0,0-8.048,2.013,14.172,14.172,0,0,0-5.5,5.672,17.622,17.622,0,0,0-1.984,8.532,17.626,17.626,0,0,0,1.984,8.533,14.159,14.159,0,0,0,5.5,5.672,15.892,15.892,0,0,0,8.049,2.013,15.2,15.2,0,0,0,9.639-3.005,14.5,14.5,0,0,0,5.157-8.107h-8.562q-1.475,4.309-6.294,4.309A6.541,6.541,0,0,1,209.9,54a10.808,10.808,0,0,1-1.984-6.945,10.918,10.918,0,0,1,1.984-7,6.544,6.544,0,0,1,5.384-2.462" transform="translate(-92.066 -22.607)" fill="#181819" fill-rule="evenodd"/>
      <path id="Pfad_52328" data-name="Pfad 52328" d="M238.428,36.221V31.346H230.49V62.754h7.938V47.106q0-4.365,1.9-6.123a8.045,8.045,0,0,1,5.641-1.757h2.1V30.892a10.916,10.916,0,0,0-9.637,5.329" transform="translate(-89.911 -22.603)" fill="#181819" fill-rule="evenodd"/>
      <path id="Pfad_52329" data-name="Pfad 52329" d="M271.648,32.766a17.841,17.841,0,0,0-16.243.057,13.854,13.854,0,0,0-5.556,5.672,17.764,17.764,0,0,0-1.984,8.562,17.465,17.465,0,0,0,2.012,8.505,14.173,14.173,0,0,0,5.613,5.7,16.364,16.364,0,0,0,8.134,2.013,15.225,15.225,0,0,0,9.466-2.92,14.3,14.3,0,0,0,5.216-7.455h-8.562a6.479,6.479,0,0,1-6.292,3.8,7.336,7.336,0,0,1-5.16-1.926,7.812,7.812,0,0,1-2.381-5.33h22.96a18.665,18.665,0,0,0,.227-3.061,16.567,16.567,0,0,0-1.955-8.134,13.583,13.583,0,0,0-5.5-5.471M255.969,44.118a7.85,7.85,0,0,1,2.461-4.96,7.2,7.2,0,0,1,4.961-1.786,7.841,7.841,0,0,1,5.272,1.843,6.3,6.3,0,0,1,2.211,4.9Z" transform="translate(-88.692 -22.606)" fill="#181819" fill-rule="evenodd"/>
      <path id="Pfad_52330" data-name="Pfad 52330" d="M288.8,24.059h-7.993v7.767h-3.746v6.52h3.746V53.483q0,9.752,10.034,9.751h4.99v-6.69h-3.684a3.76,3.76,0,0,1-2.58-.708,3,3,0,0,1-.765-2.3v-15.2h7.029V31.826H288.8Z" transform="translate(-86.641 -23.083)" fill="#181819" fill-rule="evenodd"/>
      <path id="Pfad_52331" data-name="Pfad 52331" d="M326.585,46.373a16.558,16.558,0,0,0-1.956-8.134,13.57,13.57,0,0,0-5.5-5.471,17.841,17.841,0,0,0-16.243.057,13.852,13.852,0,0,0-5.555,5.672,17.767,17.767,0,0,0-1.985,8.562,17.454,17.454,0,0,0,2.013,8.505,14.151,14.151,0,0,0,5.612,5.7,16.364,16.364,0,0,0,8.134,2.013,15.228,15.228,0,0,0,9.467-2.92,14.3,14.3,0,0,0,5.215-7.455h-8.562a6.479,6.479,0,0,1-6.292,3.8,7.341,7.341,0,0,1-5.16-1.926,7.811,7.811,0,0,1-2.38-5.33h22.961a18.917,18.917,0,0,0,.227-3.061M303.45,44.113a7.853,7.853,0,0,1,2.467-4.96,7.2,7.2,0,0,1,4.961-1.786,7.844,7.844,0,0,1,5.273,1.843,6.3,6.3,0,0,1,2.21,4.9Z" transform="translate(-85.357 -22.606)" fill="#181819" fill-rule="evenodd"/>
      <path id="Pfad_52332" data-name="Pfad 52332" d="M348.122,31.975a11.723,11.723,0,0,1,6.151-1.615,11.236,11.236,0,0,1,5.7,1.417,9.465,9.465,0,0,1,3.826,4.252h9.128a17.79,17.79,0,0,0-6.974-9.41,20.129,20.129,0,0,0-11.622-3.4A20.426,20.426,0,0,0,344.1,25.8a18.845,18.845,0,0,0-7.2,7.2,20.727,20.727,0,0,0-2.636,10.459A20.58,20.58,0,0,0,336.9,53.888a18.9,18.9,0,0,0,7.2,7.17,21.7,21.7,0,0,0,21.884-.794,17.691,17.691,0,0,0,6.944-9.439H363.8a9.627,9.627,0,0,1-3.826,4.281,11.06,11.06,0,0,1-5.7,1.445,11.714,11.714,0,0,1-6.151-1.616,10.983,10.983,0,0,1-4.2-4.591,15.1,15.1,0,0,1-1.5-6.889,15.064,15.064,0,0,1,1.5-6.916,11.043,11.043,0,0,1,4.2-4.564" transform="translate(-82.625 -23.142)" fill="#181819"/>
      <path id="Pfad_52333" data-name="Pfad 52333" d="M394.586,53.112,382,23.688h-9.014V63.259h7.935V37.521l10.658,25.739h6.01l10.6-25.739V63.259h7.946V23.688h-8.958Z" transform="translate(-79.905 -23.109)" fill="#181819"/>
      <path id="Pfad_52334" data-name="Pfad 52334" d="M438.561,42.491a46.068,46.068,0,0,0-6.294-2.268q-2.833-.851-4.388-1.5a7.961,7.961,0,0,1-2.608-1.7,3.568,3.568,0,0,1-1.048-2.636,4.3,4.3,0,0,1,1.391-3.459,5.508,5.508,0,0,1,3.714-1.19,6.518,6.518,0,0,1,4.281,1.331,4.541,4.541,0,0,1,1.729,3.373h8.731a11.04,11.04,0,0,0-4.223-8.3,15.747,15.747,0,0,0-9.953-2.976,17.943,17.943,0,0,0-7.257,1.391,11.175,11.175,0,0,0-4.933,4,10.7,10.7,0,0,0-1.756,6.123,9.541,9.541,0,0,0,1.727,5.981A10.973,10.973,0,0,0,421.815,44a47.627,47.627,0,0,0,6.264,2.239,45.068,45.068,0,0,1,4.451,1.446,7.586,7.586,0,0,1,2.693,1.785,4.034,4.034,0,0,1,1.078,2.89,4.333,4.333,0,0,1-1.588,3.487,6.586,6.586,0,0,1-4.364,1.331,6.116,6.116,0,0,1-4.281-1.417,5.492,5.492,0,0,1-1.729-3.853h-8.5a10.727,10.727,0,0,0,1.985,6.293,12.218,12.218,0,0,0,5.244,4.082,18.774,18.774,0,0,0,7.454,1.418,16.439,16.439,0,0,0,7.54-1.616,11.616,11.616,0,0,0,4.816-4.338,11.209,11.209,0,0,0,1.644-5.9,9.458,9.458,0,0,0-1.759-5.959,11.314,11.314,0,0,0-4.2-3.4" transform="translate(-76.897 -23.147)" fill="#181819"/>
    </g>
    <path id="Pfad_52335" data-name="Pfad 52335" d="M442.875,18.635A2.763,2.763,0,1,0,445.64,21.4a2.763,2.763,0,0,0-2.764-2.763m0,5.237A2.473,2.473,0,1,1,445.35,21.4a2.474,2.474,0,0,1-2.474,2.473" transform="translate(-8097.262 -3403.815)" fill="#181819"/>
    <path id="Pfad_52336" data-name="Pfad 52336" d="M443.625,20.9c0-.5-.333-.749-.886-.749h-.883v2.282h.54v-.8h.28l.4.8h.573l-.448-.877a.641.641,0,0,0,.42-.661m-.917.338H442.4v-.6h.311c.257,0,.383.092.383.3s-.126.3-.383.3" transform="translate(-8097.139 -3403.709)" fill="#181819"/>
    <g id="Gruppe_52360" data-name="Gruppe 52360" transform="translate(-7927.06 -3613.036)">
      <path id="Pfad_52338" data-name="Pfad 52338" d="M130.928,204.287a69.645,69.645,0,0,1-23.352,7.143C84.5,213.352,61.423,207.308,45.5,191.925c-15.658-16.483-18.957-38.462-4.67-56.593,13.187-16.757,34.614-24.175,56.867-25,12.362-.548,54.119,4.4,41.758,24.449-9.891,16.483-37.088,0-52.745,5.218-17.583,5.77-22.527,29.122-6.044,39.01a41.082,41.082,0,0,0,40.91-.813c16.483-10.714,47.266-60.989,67.032-37.088,3.866,4.944-42.571,54.945-57.68,63.179M15,74.076c-1.648-8.243.548-17.583,8.791-16.483C30.93,58.692,33.4,68.858,34.774,76c1.1,6.044,15.935,48.9,8.243,47.527C35.6,121.877,16.643,82.593,15,74.076M54.557,26c10.988-9.34,16.209,6.592,17.583,14.561,1.1,7.692,15.125,65.932.274,64.833-11.265-.826-18.957-50.275-19.779-57.979-1.1-6.044-3.57-16.757,1.922-21.427M111.149,9.5c9.34,1.922,6.869,21.153,6.592,28.3,0,7.692.826,65.11-11.265,63.462-12.362-1.922-9.34-58.789-9.891-67.855.274-9.34,1.648-26.374,14.561-23.9m28.571,41.209c1.1-5.77,2.206-16.483,8.791-18.957,12.919-5.218,12.636,10.988,11.265,18.683-1.648,7.418-11.539,65.384-24.726,59.889-9.891-4.122,3.022-52.2,4.67-59.615" transform="translate(-14.485 -9.265)" fill-rule="evenodd"/>
    </g>
  </g>
</svg>
