<svg width="300" height="300" viewBox="0 0 300 300" fill="none" xmlns="http://www.w3.org/2000/svg">
<path d="M41.8105 270.01L17.7373 0H282.262L258.163 269.969L149.838 300L41.8105 270.01Z" fill="#264DE4"/>
<path d="M237.533 252.778L258.126 22.0771H150V277.045L237.533 252.778Z" fill="#2965F1"/>
<path d="M72.9252 122.22L75.893 155.335H149.999V122.22H72.9252ZM69.9716 88.3093H149.999V55.1934H66.9609L69.9716 88.3093ZM149.999 208.225L149.854 208.264L112.973 198.306L110.616 171.894H77.3718L82.0119 223.89L149.847 242.722L149.999 242.68V208.225Z" fill="#EBEBEB"/>
<path d="M149.886 122.22V155.335H190.664L186.821 198.285L149.886 208.254V242.706L217.775 223.89L218.273 218.295L226.055 131.113L226.863 122.22L232.841 55.1934H149.886V88.3093H196.55L193.535 122.22H149.886Z" fill="white"/>
</svg>
