<svg version="1.1" id="Layer_1" xmlns="http://www.w3.org/2000/svg" xmlns:xlink="http://www.w3.org/1999/xlink" x="0px" y="0px" viewBox="0 0 165.4 74" style="enable-background:new 0 0 165.4 74;" xml:space="preserve">
 <style type="text/css">
  .st0{fill:#F66035;}
	.st1{fill:#FFFFFF;}
 </style>
 <g>
  <path class="st0" d="M156.9,74H8.5C3.8,74,0,70.2,0,65.5v-57C0,3.8,3.8,0,8.5,0h148.4c4.7,0,8.5,3.8,8.5,8.5v57
		C165.4,70.2,161.6,74,156.9,74z">
  </path>
  <g>
   <path class="st1" d="M109.3,15.2V31c-2.5-1.9-5.3-3-8.7-3c-8.5,0-15.3,6.9-15.3,15.3s6.9,15.3,15.3,15.3c3.4,0,6.2-1.1,8.7-3v2.4
			h7.7V15.2H109.3z M101.3,51.5c-4.5,0-8.1-3.6-8.1-8.1c0-4.5,3.6-8.1,8.1-8.1s8.1,3.6,8.1,8.1C109.4,47.8,105.8,51.5,101.3,51.5z">
   </path>
   <path class="st1" d="M40.2,15.2V31c-2.5-1.9-5.3-3-8.7-3c-8.5,0-15.3,6.9-15.3,15.3s6.9,15.3,15.3,15.3c3.4,0,6.2-1.1,8.7-3v2.4
			H48V15.2H40.2z M32.2,51.5c-4.5,0-8.1-3.6-8.1-8.1c0-4.5,3.6-8.1,8.1-8.1c4.5,0,8.1,3.6,8.1,8.1C40.3,47.8,36.7,51.5,32.2,51.5z">
   </path>
   <path class="st1" d="M122.2,32.4l2.7,5.3c3.1-2.1,6.1-3.3,9.5-3.3c6.9,0,7,5.3,7,5.3s-3.8-0.2-6.8-0.1c-4,0.1-12.7,1.4-12.7,9.9
			c0,5.7,4.5,9.3,10.6,9.3c6.3,0,8.7-2.3,9.3-3.3l0,2.7h7.5V40.8c0-5.8-3.9-12.8-14.6-12.8C128.1,27.9,124.1,30.9,122.2,32.4z
			 M133.4,52.9c-1.8,0-4.7-0.4-4.7-3.8c0-2.4,2.9-3.7,5.8-3.8c3.1-0.1,6.8,0,6.8,0C141.4,50.7,136.9,52.9,133.4,52.9z">
   </path>
   <path class="st1" d="M60.6,44.6c0,3.3,2.7,6,6,6h0.3c3.3,0,6-2.7,6-6c0-3.8,0-14.7,0-14.7h7.8v28.3h-7.5l0-3.6
			C72.4,55.7,70,58,64.9,58c-3.5,0-7.2-1.8-9.1-4c-1.9-2.2-2.9-5.4-2.9-9.6V29.8h7.7L60.6,44.6L60.6,44.6z">
   </path>
  </g>
 </g>
</svg>