<svg width="300" height="300" viewBox="0 0 300 300" fill="none" xmlns="http://www.w3.org/2000/svg">
<g clip-path="url(#clip0_231_19)">
<path d="M150 0C67.2 0 0 67.2 0 150C0 232.8 67.2 300 150 300C232.8 300 300 232.8 300 150C300 67.2 232.8 0 150 0ZM159.3 103.8C153.3 103.8 147.9 107.1 143.1 113.4C136.2 122.7 131.4 135 128.4 150.9L128.1 152.7L130.2 152.4C142.8 150 152.1 146.4 157.8 141C165.9 133.8 169.8 125.7 169.8 116.7C169.8 112.8 168.9 109.5 166.8 107.4C165 105 162.3 103.8 159.3 103.8ZM167.7 96.9C176.7 96.9 183.6 99 188.7 102.9C193.5 107.1 195.9 111.9 195.9 118.2C195.9 123.3 193.8 128.7 189.9 133.8C186 139.2 179.4 143.7 170.4 147.6C161.1 151.8 147 155.4 128.4 158.4L127.2 158.7L126.9 166.2C126.9 174 128.7 180 132.9 184.2C136.8 188.4 142.2 190.5 148.8 190.5C154.5 190.5 159.9 189.3 165 186.9C170.1 184.5 176.4 179.7 183.3 172.8C184.5 173.7 186.9 175.5 188.4 176.7C180.6 184.8 172.5 190.8 165 194.1C157.2 198 148.5 199.8 139.2 199.8C126.3 199.8 116.1 196.2 108.6 189C101.4 182.1 97.5 172.5 97.5 160.5C97.5 149.7 100.8 138.9 106.8 129C113.1 119.1 121.8 111.3 132.6 105.6C143.4 99.6 155.1 96.9 167.7 96.9ZM113.7 70.2C70.5 90.3 45.3 133.8 55.8 175.2C66.6 216.9 109.5 243 156.9 239.4C89.1 250.5 29.1 228 18 185.1C11.1 157.8 25.8 128.1 54 104.1L32.4 91.2L113.4 70.5C112.5 70.5 111.6 71.1 110.7 71.7C111.6 71.1 112.8 70.8 113.7 70.2ZM179.1 57.6C231.9 57.6 274.8 78.9 283.8 114.6C290.7 141.9 276.3 171.6 247.8 195.6L269.4 208.2L188.4 229.2C189.3 228.9 190.2 228.6 191.1 228C190.2 228.3 189.3 228.9 188.1 229.2C231.3 209.4 256.5 165.9 246 124.2C235.2 82.5 192.3 56.7 144.9 60.3C156.6 58.2 168 57.3 179.1 57.6Z" fill="black"/>
</g>
<defs>
<clipPath id="clip0_231_19">
<rect width="300" height="300" fill="white"/>
</clipPath>
</defs>
</svg>
