<?xml version="1.0" encoding="utf-8"?>
<!-- Generator: Adobe Illustrator 23.0.1, SVG Export Plug-In . SVG Version: 6.00 Build 0)  -->
<svg version="1.1" id="Layer_1" xmlns="http://www.w3.org/2000/svg" xmlns:xlink="http://www.w3.org/1999/xlink" x="0px" y="0px"
	 viewBox="0 0 1000 1000" style="enable-background:new 0 0 1000 1000;" xml:space="preserve">
<style type="text/css">
	.st0{fill:#4AC5DC;}
</style>
<g>
	<path class="st0" d="M774.9,227.1c-70.4-70.4-167.3-112.6-273.7-112.6c-214.2,0-387.8,172-387.8,386.2S287,887,499.7,887
		c214.2,0,386.2-173.6,386.2-386.2C887.5,394.4,843.7,297.5,774.9,227.1z M665.4,195.9h3.1c61,32.8,109.5,84.4,142.3,145.4
		c-23.5-3.1-48.5,1.6-70.4,12.5c-42.2,20.3-61,59.4-76.6,93.8l-1.6,3.1c-9.4,20.3-28.1,43.8-57.9,40.7c0-9.4-3.1-20.3-6.3-29.7
		c34.4-28.1,45.3-73.5,26.6-123.5l-1.6-4.7c-12.5-32.8-23.5-59.4-14.1-87.6C617,216.2,643.6,202.1,665.4,195.9z M394.9,170.8
		l1.6-1.6c68.8-21.9,142.3-20.3,211.1,1.6c-21.9,14.1-39.1,36-46.9,62.5c-14.1,43.8,1.6,84.4,14.1,120.4l1.6,4.7
		c7.8,20.3,10.9,48.5-9.4,67.2c-7.8-7.8-17.2-14.1-28.1-18.8c3.1-43.8-21.9-81.3-70.4-104.8l-3.1-1.6
		c-32.8-14.1-59.4-26.6-73.5-53.2C377.7,216.2,385.5,188,394.9,170.8z M554.4,500.8c0,29.7-25,54.7-54.7,54.7
		c-29.7,0-54.7-25-54.7-54.7c0-29.7,25-54.7,54.7-54.7C531,446.1,554.4,469.5,554.4,500.8z M337.1,194.3L337.1,194.3
		c-3.1,25,0,51.6,12.5,73.5c21.9,42.2,61,59.4,97,75.1l3.1,1.6c20.3,9.4,42.2,25,42.2,51.6c-10.9,0-21.9,3.1-32.8,7.8
		c-29.7-34.4-75.1-43.8-125.1-25l-4.7,1.6c-32.8,12.5-61,21.9-90.7,12.5c-23.5-7.8-42.2-26.6-50-50
		C222.9,280.3,273,227.1,337.1,194.3z M168.2,602.4c-20.3-65.7-20.3-136,0-203.3c15.6,18.8,36,32.8,57.9,39.1
		c45.3,14.1,86,0,122-14.1l3.1-1.6c21.9-7.8,50-10.9,70.4,9.4c-6.3,7.8-10.9,17.2-15.6,26.6c-45.3-4.7-86,20.3-107.9,68.8l-1.6,6.3
		c-14.1,31.3-26.6,57.9-53.2,71.9C218.2,616.5,191.6,614.9,168.2,602.4L168.2,602.4z M337.1,805.7h-3.1
		c-61-32.8-111-84.4-142.3-145.4c6.3,0,10.9,1.6,17.2,1.6c18.8,0,37.5-4.7,54.7-12.5c42.2-20.3,61-59.4,76.6-93.8l1.6-3.1
		c9.4-20.3,26.6-43.8,56.3-40.7c0,9.4,3.1,20.3,7.8,29.7c-36,28.1-45.3,73.5-26.6,125.1l1.6,3.1c12.5,32.8,23.5,59.4,14.1,87.6
		C384,785.4,357.4,799.5,337.1,805.7z M606,830.7C606,832.3,606,832.3,606,830.7c-70.4,23.5-143.9,21.9-212.7,0
		c21.9-15.6,39.1-36,46.9-62.5c14.1-43.8,0-84.4-14.1-120.4l-1.6-4.7c-7.8-21.9-12.5-48.5,9.4-67.2c7.8,7.8,17.2,12.5,28.1,17.2
		c-4.7,43.8,21.9,84.4,70.4,106.3l4.7,1.6c31.3,14.1,59.4,26.6,73.5,53.2C624.8,785.4,617,813.5,606,830.7z M665.4,807.3
		L665.4,807.3c3.1-25,0-50-12.5-73.5c-21.9-40.7-61-59.4-97-75.1l-3.1-1.6c-20.3-9.4-43.8-26.6-42.2-54.7
		c10.9-1.6,20.3-3.1,31.3-7.8C570.1,629,617,640,668.6,621.2l4.7-1.6c32.8-12.5,61-21.9,90.7-12.5c23.5,7.8,42.2,26.6,50,48.5
		C779.6,719.7,728,772.9,665.4,807.3z M776.5,561.8c-45.3-14.1-86,0-122,14.1l-4.7,1.6c-21.9,7.8-50,10.9-70.4-10.9
		c6.3-7.8,10.9-15.6,15.6-25c4.7,0,7.8,0,12.5,0c40.7,0,76.6-25,97-68.8l1.6-3.1c14.1-31.3,26.6-57.9,54.7-71.9
		c23.5-10.9,50-10.9,71.9,1.6c10.9,32.8,15.6,67.2,15.6,103.2c0,34.4-4.7,67.2-14.1,100.1C818.7,582.1,798.4,568,776.5,561.8z"/>
	<path class="st0" d="M501.3,8.2L501.3,8.2C229.2,8.2,8.7,228.7,8.7,500.8s220.5,492.6,492.6,492.6s492.6-220.5,492.6-492.6
		S773.3,8.2,501.3,8.2z M804.6,805.7c-78.2,78.2-186.1,126.7-304.9,126.7c-237.7-1.6-430-193.9-430-431.6s192.3-430,431.6-430
		c237.7,0,430,192.3,430,430C931.3,619.6,882.8,727.5,804.6,805.7z"/>
	<path class="st0" d="M911,94.2C864,47.3,804.6,12.9,751.5,1.9c-3.1,0-7.8,1.6-7.8,4.7s1.6,6.3,3.1,7.8
		C853.1,66.1,937.5,152.1,987.6,260c1.6,3.1,6.3,4.7,9.4,3.1c3.1-1.6,4.7-4.7,3.1-7.8C989.1,199,956.3,141.1,911,94.2z"/>
	<path class="st0" d="M252.6,985.5c-106.3-50-190.8-136-240.8-242.4c-1.6-3.1-6.3-4.7-9.4-3.1c-1.6,0-3.1,3.1-3.1,6.3
		C10.2,802.6,43.1,860.4,90,907.4c46.9,46.9,106.3,81.3,159.5,90.7l0,0c3.1,0,6.3-3.1,6.3-6.3C255.7,988.7,254.2,987.1,252.6,985.5z
		"/>
</g>
</svg>
