<svg width="309" height="300" viewBox="0 0 309 300" fill="none" xmlns="http://www.w3.org/2000/svg">
<mask id="mask0_231_48" style="mask-type:luminance" maskUnits="userSpaceOnUse" x="0" y="0" width="308" height="300">
<path d="M307.692 0H0V300H307.692V0Z" fill="white"/>
</mask>
<g mask="url(#mask0_231_48)">
<path d="M54.4871 0H253.204C283.333 0 307.692 24.3589 307.692 54.4872V245.513C307.692 275.642 283.333 300 253.204 300H54.4871C24.3589 300 0 275.642 0 245.513V54.4872C0 24.3589 24.3589 0 54.4871 0Z" fill="#330000"/>
<path d="M148.717 179.488H101.025L91.2814 209.616C91.0251 210.769 89.9994 211.539 88.8456 211.411H64.743C63.3329 211.411 62.9481 210.642 63.3329 209.103L104.615 90.2569C104.999 88.9748 105.384 87.5647 105.897 86.0261C106.41 83.3339 106.666 80.5133 106.666 77.6929C106.538 77.0518 107.051 76.4109 107.692 76.2826H140.897C141.922 76.2826 142.435 76.6672 142.563 77.3083L189.358 209.359C189.743 210.769 189.358 211.411 188.075 211.411H161.281C160.384 211.539 159.487 210.898 159.231 210L148.717 179.488ZM108.461 153.462H141.025C140.256 150.769 139.23 147.565 138.076 144.231C136.922 140.77 135.769 137.052 134.615 133.206C133.333 129.231 132.179 125.385 130.897 121.411C129.615 117.436 128.461 113.719 127.435 110C126.41 106.411 125.512 103.077 124.615 100.001H124.358C123.205 105.513 121.794 111.026 119.999 116.539C118.076 122.693 116.153 129.103 114.102 135.513C112.307 142.052 110.384 148.077 108.461 153.462ZM217.948 98.7185C213.716 98.8466 209.614 97.18 206.537 94.2313C203.588 91.0262 202.051 86.7953 202.178 82.4365C202.051 78.0775 203.717 73.9749 206.794 71.0262C209.87 68.0775 213.973 66.5391 218.204 66.5391C223.204 66.5391 227.05 68.0775 229.871 71.0262C232.691 74.1031 234.23 78.2057 234.101 82.4365C234.23 86.7953 232.691 91.0262 229.615 94.2313C226.666 97.3082 222.307 98.9749 217.948 98.7185ZM203.588 210V111.283C203.588 110 204.101 109.488 205.255 109.488H230.641C231.794 109.488 232.307 110.129 232.307 111.283V210C232.307 211.411 231.794 212.052 230.641 212.052H205.511C204.23 212.052 203.588 211.282 203.588 210Z" fill="#FF9A00"/>
</g>
</svg>
