<svg fill="none" height="100%" viewBox="0 0 143 42" width="100%" xmlns="http://www.w3.org/2000/svg">
<g clip-path="url(#clip0_2183_3386)">
<path d="M30.6851 18.0911H28.3246V11.0098H23.6037V18.0911H25.9642V25.1725H23.6037V18.0911H18.8828V25.1725H21.2433V32.2539H37.7665V25.1725V18.0911V11.0098H30.6851V18.0911Z" fill="black"></path>
<path d="M18.8839 11.0098H16.5234V18.0911H18.8839V11.0098Z" fill="black"></path>
<path d="M10.6216 11.0098H9.44141V18.0911H10.6216V11.0098Z" fill="black"></path>
<path d="M14.1632 18.0918H11.8027V25.1732H14.1632V18.0918Z" fill="black"></path>
<path d="M5.90093 18.0918H4.7207V25.1732H5.90093V18.0918Z" fill="black"></path>
<path d="M18.885 25.1729H14.1641V32.2542H18.885V25.1729Z" fill="black"></path>
<path d="M9.44249 25.1729H7.08203V32.2542H9.44249V25.1729Z" fill="black"></path>
<path d="M1.18023 25.1729H0V32.2542H1.18023V25.1729Z" fill="black"></path>
<path d="M47.4427 11.0186H42.4277V32.2558H47.4427V11.0186Z" fill="black"></path>
<path d="M76.4889 10.4072C73.7419 10.4072 71.2556 11.3662 69.5984 14.1574C68.4644 11.672 66.0223 10.4072 63.232 10.4072C60.8332 10.4072 58.1738 11.5412 56.9522 13.7217V11.018H52.1113V32.2552H57.1263V19.6523C57.1263 16.9486 58.8268 14.9423 61.5305 14.9423C64.4083 14.9423 65.6298 16.8611 65.6298 19.3032V32.2552H70.6016V19.6523C70.6016 17.0362 72.3463 14.9423 75.0058 14.9423C77.8403 14.9423 79.1051 16.8178 79.1051 19.3032V32.2552H83.9893V18.4751C83.9893 12.8493 80.3266 10.4072 76.4889 10.4072Z" fill="black"></path>
<path d="M103.316 13.7221C102.4 11.9773 100.351 10.626 97.0362 10.626C91.1931 10.626 87.2246 15.2918 87.2246 20.9608C87.2246 26.9348 91.3672 31.2957 97.0362 31.2957C100.132 31.2957 102.27 29.8568 103.185 28.1996V30.4233C103.185 34.741 101.18 36.7897 97.167 36.7897C94.2696 36.7897 92.4904 34.8511 92.4904 32.2546H87.6033C87.6033 37.4811 91.6721 41.1939 97.2979 41.1939C105.507 41.1939 108.2 35.9173 108.2 30.2483V11.0184H103.316V13.7221ZM97.8644 26.979C94.5499 26.979 92.3261 24.6677 92.3261 20.9608C92.3261 17.2539 94.6374 14.9869 97.8644 14.9869C101.091 14.9869 103.315 17.3415 103.315 20.9608C103.315 24.5802 101.091 26.979 97.8644 26.979Z" fill="black"></path>
<path d="M117.988 11.0186H112.973V32.2558H117.988V11.0186Z" fill="black"></path>
<path d="M134.905 21.441L142.362 11.0186H136.605L131.983 17.8216C131.59 17.2108 127.709 11.6726 127.317 11.0186H121.299L128.887 21.5285L121.168 32.2558H126.968C127.36 31.6017 131.329 25.8019 131.764 25.1478L136.692 32.2558H142.623L134.904 21.441H134.905Z" fill="black"></path>
</g>
<defs>
<clipPath id="clip0_2183_3386">
<rect fill="black" height="40.8571" transform="translate(0 0.571289)" width="143"></rect>
</clipPath>
</defs>
</svg>