<svg width="262" height="300" viewBox="0 0 262 300" fill="none" xmlns="http://www.w3.org/2000/svg">
<g clip-path="url(#clip0_231_55)">
<path d="M131.058 82.6172C93.8637 82.6172 63.8623 112.676 63.8623 149.941C63.8623 187.207 93.8637 217.266 131.058 217.266C168.253 217.266 198.254 187.207 198.254 149.941C198.254 112.676 168.253 82.6172 131.058 82.6172ZM131.058 193.711C107.022 193.711 87.3721 174.082 87.3721 149.941C87.3721 125.801 106.964 106.172 131.058 106.172C155.153 106.172 174.744 125.801 174.744 149.941C174.744 174.082 155.094 193.711 131.058 193.711ZM216.676 79.8633C216.676 88.5938 209.658 95.5665 201.003 95.5665C192.289 95.5665 185.33 88.5352 185.33 79.8633C185.33 71.1914 192.347 64.1602 201.003 64.1602C209.658 64.1602 216.676 71.1914 216.676 79.8633ZM261.181 95.8008C260.187 74.7657 255.391 56.1328 240.01 40.7813C224.688 25.4297 206.091 20.625 185.096 19.5703C163.457 18.3398 98.6007 18.3398 76.9623 19.5703C56.0258 20.5664 37.4284 25.3711 22.0477 40.7227C6.66687 56.0742 1.92982 74.7071 0.877147 95.7422C-0.350976 117.422 -0.350976 182.402 0.877147 204.082C1.87134 225.117 6.66687 243.75 22.0477 259.102C37.4284 274.453 55.9673 279.258 76.9623 280.313C98.6007 281.543 163.457 281.543 185.096 280.313C206.091 279.317 224.688 274.512 240.01 259.102C255.333 243.75 260.128 225.117 261.181 204.082C262.409 182.402 262.409 117.481 261.181 95.8008ZM233.226 227.344C228.665 238.828 219.834 247.676 208.313 252.305C191.061 259.16 150.123 257.578 131.058 257.578C111.993 257.578 70.9972 259.102 53.8034 252.305C42.3409 247.734 33.5102 238.887 28.8901 227.344C22.0477 210.059 23.6267 169.043 23.6267 149.941C23.6267 130.84 22.1061 89.7657 28.8901 72.5391C33.4517 61.0547 42.2825 52.207 53.8034 47.5781C71.0556 40.7227 111.993 42.3047 131.058 42.3047C150.123 42.3047 191.119 40.7813 208.313 47.5781C219.776 52.1485 228.606 60.9961 233.226 72.5391C240.069 89.8243 238.49 130.84 238.49 149.941C238.49 169.043 240.069 210.117 233.226 227.344Z" fill="black"/>
</g>
<defs>
<clipPath id="clip0_231_55">
<rect width="262" height="300" fill="white"/>
</clipPath>
</defs>
</svg>
