<svg xmlns="http://www.w3.org/2000/svg" fill="none" viewBox="0 0 80 80" id="Mapbox-Icon--Streamline-Svg-Logos" height="80" width="80">
  <desc>
    Mapbox Icon Streamline Icon: https://streamlinehq.com
  </desc>
  <path fill="#485160" d="M40 1.2546833333333334C61.632 1.2546833333333334 79.16666666666667 18.60075 79.16666666666667 40S61.632 78.74533333333333 40 78.74533333333333 0.8333333333333334 61.39925000000001 0.8333333333333334 40 18.368 1.2546833333333334 40 1.2546833333333334ZM57.97525 22.218083333333333c-7.7980833333333335 -7.670583333333334 -20.134083333333336 -7.975666666666667 -27.579666666666665 -0.6100833333333333 -13.168666666666667 13.026916666666668 -9.285416666666666 35.97408333333333 -9.124833333333333 36.88675l0.005 0.028083333333333335s23.923000000000002 4.227500000000001 37.31633333333334 -9.02175c7.445583333333333 -7.3655 7.18125 -19.612333333333336 -0.6168333333333333 -27.283000000000005Zm-13.481416666666668 1.7433333333333334 3.8329166666666667 7.801416666666667 7.88625 3.7916666666666665 -7.88625 3.79175 -3.8329166666666667 7.801416666666667 -3.8329999999999997 -7.801416666666667 -7.886166666666667 -3.79175 7.886166666666667 -3.7916666666666665 3.8329999999999997 -7.801416666666667Z" stroke-width="0.8333"></path>
</svg>