<svg width="493" height="300" viewBox="0 0 493 300" fill="none" xmlns="http://www.w3.org/2000/svg">
<g clip-path="url(#clip0_231_171)">
<path d="M61.5607 297.28C40.4841 297.28 19.4074 285.575 7.69825 266.849C-4.01099 248.124 -1.66914 224.715 10.0401 205.989L120.107 32.771C131.816 14.0447 152.893 2.34082 173.969 2.34082C195.046 2.34082 216.122 16.3855 227.832 35.1118C237.199 53.8381 237.199 77.2459 225.489 95.9722L115.423 269.19C103.714 285.575 82.6374 297.28 61.5607 297.28Z" fill="#F62B54"/>
<path d="M251.251 297.279C227.833 297.279 209.097 285.575 197.389 266.848C188.022 245.782 188.022 222.373 199.73 203.648L309.797 30.4301C321.506 11.7039 342.583 0 363.659 0C387.078 0 405.813 14.0447 417.522 32.7708C426.89 51.4971 426.89 74.9049 412.839 93.631L302.772 266.848C291.062 285.575 272.328 297.279 251.251 297.279Z" fill="#FFCC00"/>
<path d="M436.257 299.619C467.297 299.619 492.46 274.468 492.46 243.441C492.46 212.415 467.297 187.262 436.257 187.262C405.215 187.262 380.052 212.415 380.052 243.441C380.052 274.468 405.215 299.619 436.257 299.619Z" fill="#00CA72"/>
</g>
<defs>
<clipPath id="clip0_231_171">
<rect width="493" height="300" fill="white"/>
</clipPath>
</defs>
</svg>
