<svg width="300" height="300" viewBox="0 0 300 300" fill="none" xmlns="http://www.w3.org/2000/svg">
<g clip-path="url(#clip0_231_178)">
<mask id="mask0_231_178" style="mask-type:luminance" maskUnits="userSpaceOnUse" x="0" y="0" width="300" height="300">
<path d="M300 0H0V300H300V0Z" fill="white"/>
</mask>
<g mask="url(#mask0_231_178)">
<path d="M150 300C232.842 300 300 232.842 300 150C300 67.1572 232.842 0 150 0C67.1572 0 0 67.1572 0 150C0 232.842 67.1572 300 150 300Z" fill="#13AA52"/>
<path d="M190.097 131.672C180.621 89.8565 158.231 76.1074 155.819 70.8544C153.182 67.1484 150.51 60.5566 150.51 60.5566C150.467 60.4453 150.396 60.2489 150.314 60.0586C150.042 63.7647 149.901 65.1943 146.397 68.9326C140.971 73.1748 113.133 96.5333 110.868 144.041C108.756 188.349 142.875 214.752 147.49 218.118L148.014 218.49V218.459C148.043 218.681 149.479 229.005 150.486 239.945H154.103C154.95 232.212 156.222 224.531 157.911 216.938L158.204 216.747C160.268 215.267 162.236 213.657 164.096 211.928L164.306 211.737C174.114 202.676 191.748 181.718 191.576 148.301C191.54 142.727 191.045 137.165 190.097 131.672ZM150.104 193.101C150.104 193.101 150.104 130.957 152.154 130.969C153.753 130.969 155.825 211.128 155.825 211.128C152.978 210.785 150.104 197.936 150.104 193.101Z" fill="white"/>
</g>
</g>
<defs>
<clipPath id="clip0_231_178">
<rect width="300" height="300" fill="white"/>
</clipPath>
</defs>
</svg>
