<svg width="300" height="300" viewBox="0 0 300 300" fill="none" xmlns="http://www.w3.org/2000/svg">
<g clip-path="url(#clip0_231_185)">
<mask id="mask0_231_185" style="mask-type:luminance" maskUnits="userSpaceOnUse" x="0" y="0" width="300" height="300">
<path d="M300 0H0V300H300V0Z" fill="white"/>
</mask>
<g mask="url(#mask0_231_185)">
<path d="M140.176 0.0807313C139.531 0.139374 137.478 0.344623 135.63 0.491229C93.0206 4.3323 53.1085 27.3202 27.8298 62.6523C13.7537 82.2975 4.75073 104.582 1.34897 128.185C0.146628 136.424 0 138.858 0 150.03C0 161.2 0.146628 163.634 1.34897 171.873C9.50146 228.2 49.5894 275.524 103.959 293.058C113.695 296.196 123.959 298.336 135.63 299.627C140.176 300.124 159.824 300.124 164.37 299.627C184.516 297.397 201.584 292.414 218.416 283.823C220.997 282.503 221.496 282.151 221.143 281.858C220.909 281.682 209.912 266.933 196.715 249.106L172.727 216.706L142.669 172.225C126.129 147.772 112.522 127.775 112.405 127.775C112.287 127.745 112.17 147.508 112.111 171.639C112.023 213.891 111.994 215.591 111.466 216.588C110.704 218.025 110.117 218.612 108.886 219.257C107.947 219.725 107.126 219.814 102.698 219.814H97.6246L96.2757 218.964C95.3958 218.406 94.7507 217.673 94.3109 216.822L93.6951 215.503L93.7537 156.715L93.8416 97.8963L94.7507 96.7527C95.22 96.1371 96.217 95.3454 96.9207 94.9642C98.1231 94.3778 98.5924 94.3192 103.666 94.3192C109.648 94.3192 110.645 94.5536 112.199 96.2544C112.639 96.7235 128.915 121.236 148.387 150.763C167.86 180.29 194.487 220.606 207.566 240.397L231.319 276.375L232.522 275.582C243.167 268.663 254.428 258.811 263.343 248.549C282.316 226.763 294.545 200.199 298.651 171.873C299.854 163.634 300 161.2 300 150.03C300 138.858 299.854 136.424 298.651 128.185C290.498 71.8591 250.41 24.5346 196.042 7.00054C186.452 3.89249 176.246 1.75205 164.809 0.461908C161.994 0.168694 142.61 -0.153839 140.176 0.0807313ZM201.584 90.8006C202.991 91.5042 204.134 92.853 204.545 94.2605C204.781 95.0229 204.839 111.325 204.781 148.065L204.693 200.785L195.396 186.534L186.07 172.284V133.961C186.07 109.185 186.188 95.2574 186.364 94.583C186.833 92.9411 187.86 91.6509 189.267 90.8886C190.469 90.2727 190.909 90.2142 195.513 90.2142C199.854 90.2142 200.616 90.2727 201.584 90.8006Z" fill="black"/>
</g>
</g>
<defs>
<clipPath id="clip0_231_185">
<rect width="300" height="300" fill="white"/>
</clipPath>
</defs>
</svg>
