<svg width="300" height="300" viewBox="0 0 300 300" fill="none" xmlns="http://www.w3.org/2000/svg">
<path d="M159.27 107.744C159.048 107.745 158.83 107.803 158.637 107.913C158.446 108.025 158.287 108.185 158.176 108.377C158.065 108.569 158.006 108.787 158.005 109.009V141.26C158.005 141.576 157.858 141.86 157.584 142.019C157.449 142.097 157.296 142.138 157.141 142.138C156.985 142.138 156.833 142.097 156.698 142.019L151.428 138.984C151.044 138.761 150.608 138.644 150.164 138.644C149.719 138.644 149.283 138.761 148.899 138.984L127.862 151.125C127.076 151.579 126.597 152.451 126.597 153.36V177.643C126.597 178.55 127.076 179.381 127.862 179.835L148.899 191.976C149.283 192.199 149.719 192.317 150.164 192.317C150.608 192.317 151.044 192.199 151.428 191.976L172.465 179.835C172.85 179.613 173.17 179.294 173.392 178.909C173.614 178.524 173.731 178.087 173.73 177.643V117.104C173.73 116.649 173.608 116.202 173.379 115.81C173.149 115.417 172.82 115.092 172.424 114.869L159.902 107.87C159.706 107.761 159.488 107.741 159.27 107.744ZM23.9418 138.056C23.541 138.072 23.1637 138.142 22.8039 138.351L1.76642 150.493C1.38105 150.714 1.06111 151.033 0.839035 151.418C0.616965 151.803 0.500675 152.24 0.501964 152.685L0.544151 185.274C0.544151 185.727 0.77794 186.148 1.17638 186.37C1.3674 186.484 1.58605 186.545 1.8089 186.545C2.03175 186.545 2.2504 186.484 2.44142 186.37L14.9201 179.203C15.7106 178.733 16.2268 177.916 16.2268 177.01V161.791C16.2268 160.883 16.7043 160.05 17.4918 159.599L22.8033 156.521C23.1874 156.298 23.6241 156.182 24.0684 156.184C24.502 156.184 24.9473 156.292 25.3328 156.521L30.6449 159.599C31.0307 159.82 31.3509 160.139 31.5731 160.524C31.7953 160.91 31.9115 161.347 31.91 161.791V177.01C31.91 177.916 32.4315 178.738 33.2166 179.202L45.6953 186.37C45.8863 186.484 46.105 186.545 46.3278 186.545C46.5507 186.545 46.7693 186.484 46.9604 186.37C47.1526 186.258 47.3123 186.098 47.4234 185.906C47.5344 185.714 47.593 185.495 47.5932 185.273L47.6342 152.685C47.6367 152.24 47.5209 151.803 47.2987 151.417C47.0765 151.032 46.7559 150.713 46.3697 150.493L25.3328 138.351C24.9772 138.142 24.5986 138.073 24.1949 138.056H23.9418ZM212.979 138.351C212.54 138.351 212.109 138.462 211.715 138.688L190.678 150.83C190.293 151.052 189.973 151.371 189.751 151.756C189.529 152.141 189.412 152.578 189.413 153.022V177.305C189.413 178.219 189.927 179.046 190.72 179.498L211.588 191.386C212.359 191.826 213.3 191.859 214.076 191.427L226.723 184.387C227.124 184.165 227.396 183.749 227.397 183.292C227.4 183.069 227.342 182.85 227.231 182.657C227.12 182.464 226.959 182.305 226.765 182.195L205.602 170.054C205.206 169.827 204.927 169.37 204.927 168.915V161.327C204.927 160.873 205.209 160.457 205.602 160.231L212.178 156.436C212.371 156.325 212.589 156.267 212.811 156.267C213.033 156.267 213.251 156.325 213.443 156.436L220.019 160.231C220.212 160.342 220.372 160.501 220.483 160.694C220.594 160.886 220.653 161.104 220.652 161.327V167.313C220.652 167.535 220.71 167.754 220.821 167.946C220.932 168.139 221.092 168.298 221.284 168.409C221.679 168.637 222.156 168.637 222.549 168.409L235.155 161.075C235.539 160.852 235.859 160.532 236.081 160.148C236.303 159.763 236.42 159.326 236.42 158.882V153.023C236.42 152.117 235.939 151.285 235.155 150.83L214.244 138.688C213.86 138.466 213.423 138.349 212.979 138.351ZM150.079 156.479C150.189 156.479 150.318 156.506 150.416 156.563L157.626 160.737C157.822 160.85 157.963 161.059 157.963 161.284V169.632C157.963 169.858 157.823 170.067 157.626 170.18L150.416 174.354C150.32 174.409 150.211 174.438 150.1 174.438C149.989 174.438 149.88 174.409 149.784 174.354L142.575 170.18C142.379 170.066 142.238 169.858 142.238 169.632V161.284C142.238 161.058 142.38 160.851 142.575 160.737L149.784 156.564C149.873 156.508 149.975 156.479 150.079 156.48L150.079 156.479Z" fill="#404137"/>
<path d="M87.1367 138.224C86.6984 138.224 86.2648 138.335 85.8723 138.561L64.8353 150.661C64.0484 151.114 63.5703 151.988 63.5703 152.895V177.178C63.5703 178.086 64.049 178.916 64.8353 179.371L85.8723 191.512C86.2564 191.735 86.6928 191.852 87.137 191.852C87.5813 191.852 88.0176 191.735 88.4018 191.512L109.439 179.371C109.824 179.149 110.144 178.829 110.366 178.444C110.588 178.059 110.704 177.622 110.703 177.178V152.895C110.703 151.987 110.225 151.114 109.439 150.661L88.4018 138.561C88.0172 138.339 87.5808 138.223 87.1367 138.224ZM212.937 159.893C212.853 159.893 212.76 159.893 212.684 159.936L208.637 162.296C208.562 162.338 208.499 162.399 208.454 162.473C208.41 162.547 208.386 162.632 208.384 162.718V167.355C208.384 167.53 208.485 167.69 208.637 167.777L212.684 170.096C212.836 170.184 212.998 170.184 213.148 170.096L217.195 167.777C217.27 167.734 217.333 167.673 217.377 167.599C217.422 167.526 217.446 167.441 217.448 167.355V162.718C217.446 162.631 217.422 162.547 217.377 162.473C217.333 162.399 217.27 162.338 217.195 162.296L213.148 159.935C213.073 159.891 213.021 159.893 212.937 159.893Z" fill="#83CD29"/>
</svg>
