<svg width="267" height="300" viewBox="0 0 267 300" fill="none" xmlns="http://www.w3.org/2000/svg">
<g clip-path="url(#clip0_231_191)">
<path d="M133.044 0C129.001 0 125.069 0.835196 121.588 2.80458L11.4588 66.4033C4.332 70.5111 0 78.2652 0 86.5163V213.483C0 221.728 4.332 229.471 11.4588 233.589L40.2197 250.192C54.1938 257.079 59.3448 256.972 65.7047 256.972C86.393 256.972 98.206 244.417 98.206 222.601V97.27C98.206 95.4988 96.6721 94.2314 94.9334 94.2314H81.1381C79.3702 94.2314 77.8655 95.4988 77.8655 97.27V222.601C77.8655 232.27 67.7911 241.996 51.4445 233.823L21.5138 216.288C20.4543 215.712 19.6419 214.695 19.6419 213.483V86.513C19.6419 85.3106 20.4446 84.0854 21.5138 83.4745L131.409 20.113C131.906 19.8229 132.471 19.6701 133.046 19.6701C133.621 19.6701 134.185 19.8229 134.682 20.113L244.581 83.4778C245.627 84.1082 246.453 85.2749 246.453 86.5196V213.486C246.453 214.698 245.841 215.94 244.815 216.525L134.682 279.889C133.74 280.452 132.44 280.452 131.409 279.889L103.117 263.055C102.686 262.822 102.204 262.699 101.714 262.699C101.224 262.699 100.742 262.822 100.312 263.055C92.5027 267.481 91.0337 267.996 83.7086 270.537C81.905 271.167 79.1654 272.145 84.6446 275.217L121.588 296.958C125.072 298.968 129.026 300.016 133.047 300C137.068 300.024 141.023 298.975 144.503 296.961L254.636 233.593C261.762 229.449 266.091 221.731 266.091 213.486V86.5163C266.091 78.2683 261.762 70.5273 254.636 66.4098L144.503 2.81109C141.052 0.838456 137.093 0.00324802 133.047 0.00324802L133.044 0Z" fill="#83CD29"/>
<path d="M162.508 90.7266C131.148 90.7266 112.471 104.073 112.471 126.27C112.471 150.345 131.008 156.961 161.107 159.937C197.116 163.464 199.92 168.751 199.92 175.839C199.92 188.133 190.119 193.375 166.954 193.375C137.846 193.375 131.45 186.108 129.308 171.63C129.055 170.077 127.856 168.822 126.266 168.822H112.003C110.248 168.822 108.73 170.337 108.73 172.098C108.73 190.632 118.811 212.548 166.954 212.548C201.802 212.548 221.902 198.87 221.902 174.903C221.902 151.147 205.666 144.767 171.861 140.299C137.706 135.779 134.449 133.565 134.449 125.568C134.449 118.964 137.212 110.131 162.508 110.131C185.107 110.131 193.459 115.006 196.882 130.244C197.181 131.674 198.442 132.815 199.92 132.815H214.188C215.064 132.815 215.916 132.275 216.523 131.645C217.122 130.972 217.545 130.215 217.459 129.308C215.25 103.069 197.752 90.7266 162.508 90.7266Z" fill="#83CD29"/>
</g>
<defs>
<clipPath id="clip0_231_191">
<rect width="267" height="300" fill="white"/>
</clipPath>
</defs>
</svg>
