<svg width="449" height="300" viewBox="0 0 449 300" fill="none" xmlns="http://www.w3.org/2000/svg">
<g clip-path="url(#clip0_231_194)">
<path d="M251.44 300H417.57C422.871 300 427.945 298.134 432.536 295.5C437.129 292.866 441.861 289.56 444.51 285C447.159 280.438 449.001 275.264 449 269.999C448.998 264.733 447.163 259.559 444.51 255.002L332.26 61.5003C329.611 56.9398 326.373 53.6328 321.784 50.9995C317.193 48.3675 310.621 46.4995 305.32 46.4995C300.019 46.4995 294.943 48.3675 290.354 50.9995C285.763 53.6328 282.526 56.9398 279.876 61.5003L251.44 111L194.566 14.9965C191.914 10.437 188.681 5.63243 184.09 3.00035C179.499 0.367219 174.424 0 169.124 0C163.823 0 158.749 0.367219 154.156 3.00035C149.566 5.63243 144.835 10.437 142.184 14.9965L2.99338 255.002C0.339726 259.559 0.00234132 264.733 1.1612e-05 269.999C-0.00231811 275.264 0.343749 280.438 2.99338 285C5.64301 289.56 10.3756 292.866 14.9666 295.5C19.5577 298.134 24.6317 300 29.9334 300H134.7C176.213 300 206.428 281.337 227.494 246L278.38 157.5L305.32 111L387.636 252H278.38L251.44 300ZM133.204 252H59.8663L169.124 63L224.5 157.5L187.819 221.587C173.829 244.514 157.879 252 133.204 252Z" fill="#00DC82"/>
</g>
<defs>
<clipPath id="clip0_231_194">
<rect width="449" height="300" fill="white"/>
</clipPath>
</defs>
</svg>
