<svg width="228" height="300" viewBox="0 0 228 300" fill="none" xmlns="http://www.w3.org/2000/svg">
<g clip-path="url(#clip0_231_196)">
<path d="M226.94 143.569C222.198 67.0461 137.55 0.681404 103.013 0.0042039C67.7988 -0.673047 2.78847 80.59 0.0797029 163.208C-2.62907 240.406 64.4129 293.228 93.5321 300C94.2093 263.431 97.5953 129.348 97.5953 113.772C98.9498 81.9444 100.304 31.8322 105.722 30.4779C109.108 29.8006 113.171 57.5655 112.493 73.818C112.493 77.2039 112.493 87.362 112.493 101.583C118.588 95.4882 124.683 89.3934 128.069 86.0074C138.227 75.8496 142.967 77.2039 137.55 86.0074C134.841 91.425 121.974 109.709 112.493 122.576C112.493 148.986 112.493 182.169 112.493 212.643C126.037 197.067 142.29 178.782 151.094 170.657C169.377 153.049 171.41 155.758 162.606 173.366C157.188 184.2 131.455 213.996 113.171 237.699C113.171 264.786 113.171 287.811 113.171 298.646C163.283 288.487 231.68 219.414 226.94 143.569Z" fill="#DB6A26"/>
</g>
<defs>
<clipPath id="clip0_231_196">
<rect width="228" height="300" fill="white"/>
</clipPath>
</defs>
</svg>
