<svg width="309" height="300" viewBox="0 0 309 300" fill="none" xmlns="http://www.w3.org/2000/svg">
<mask id="mask0_231_198" style="mask-type:luminance" maskUnits="userSpaceOnUse" x="0" y="0" width="308" height="300">
<path d="M307.692 0H0V300H307.692V0Z" fill="white"/>
</mask>
<g mask="url(#mask0_231_198)">
<path d="M54.4871 0H253.204C283.333 0 307.692 24.3589 307.692 54.4872V245.513C307.692 275.642 283.333 300 253.204 300H54.4871C24.3589 300 0 275.642 0 245.513V54.4872C0 24.3589 24.3589 0 54.4871 0Z" fill="#001E36"/>
<path d="M69.2305 210.385V78.4617C69.2305 77.5643 69.6151 77.0514 70.5125 77.0514C72.692 77.0514 74.7433 77.0514 77.692 76.9232C80.7689 76.7951 83.9741 76.7951 87.4356 76.6668C90.897 76.5386 94.6151 76.5386 98.5895 76.4105C102.564 76.2822 106.41 76.2822 110.256 76.2822C120.769 76.2822 129.487 77.5643 136.666 80.2566C143.077 82.4361 148.974 86.0258 153.846 90.7694C157.948 94.8721 161.154 99.872 163.204 105.385C165.127 110.769 166.153 116.282 166.153 122.052C166.153 133.077 163.59 142.18 158.461 149.359C153.333 156.539 146.153 161.924 137.82 165.001C129.102 168.206 119.487 169.36 108.974 169.36C105.897 169.36 103.846 169.36 102.564 169.231C101.282 169.103 99.4868 169.103 97.0509 169.103V210.257C97.1792 211.154 96.5381 211.924 95.6406 212.051C95.5125 212.051 95.3843 212.051 95.1279 212.051H70.769C69.7433 212.051 69.2305 211.538 69.2305 210.385ZM97.1792 101.795V144.872C98.9741 145 100.641 145.128 102.179 145.128H108.974C113.974 145.128 118.974 144.359 123.718 142.821C127.82 141.667 131.41 139.231 134.23 136.026C136.923 132.821 138.205 128.462 138.205 122.821C138.333 118.846 137.307 114.872 135.256 111.41C133.077 108.077 130 105.513 126.282 104.103C121.538 102.18 116.41 101.41 111.153 101.539C107.82 101.539 104.871 101.539 102.436 101.667C99.8715 101.539 98.0766 101.667 97.1792 101.795Z" fill="#31A8FF"/>
<path d="M246.154 137.051C242.308 134.999 238.205 133.589 233.846 132.692C229.102 131.666 224.359 131.025 219.487 131.025C216.923 130.897 214.231 131.281 211.795 131.922C210.128 132.307 208.717 133.204 207.82 134.486C207.179 135.512 206.794 136.794 206.794 137.948C206.794 139.102 207.307 140.256 208.076 141.281C209.23 142.692 210.769 143.845 212.435 144.743C215.384 146.281 218.461 147.692 221.537 148.974C228.461 151.281 235.127 154.487 241.282 158.333C245.512 161.025 248.974 164.615 251.41 168.974C253.462 173.076 254.486 177.564 254.359 182.178C254.486 188.205 252.692 194.231 249.358 199.23C245.768 204.359 240.769 208.332 235 210.641C228.718 213.333 221.026 214.743 211.795 214.743C205.897 214.743 200.128 214.23 194.359 213.077C189.871 212.307 185.384 210.897 181.282 208.974C180.385 208.461 179.743 207.564 179.872 206.538V184.23C179.872 183.846 179.999 183.333 180.385 183.077C180.769 182.82 181.153 182.948 181.538 183.204C186.538 186.153 191.794 188.205 197.435 189.486C202.307 190.769 207.436 191.409 212.564 191.409C217.435 191.409 220.897 190.769 223.205 189.615C225.256 188.717 226.666 186.537 226.666 184.23C226.666 182.435 225.641 180.768 223.589 179.102C221.537 177.435 217.307 175.512 211.025 173.076C204.487 170.769 198.461 167.691 192.82 163.845C188.846 161.025 185.512 157.307 183.076 152.948C181.025 148.845 179.999 144.358 180.128 139.871C180.128 134.358 181.666 129.102 184.487 124.358C187.691 119.23 192.436 115.127 197.948 112.563C203.974 109.486 211.538 108.076 220.64 108.076C225.896 108.076 231.281 108.461 236.537 109.23C240.385 109.743 244.102 110.769 247.564 112.179C248.077 112.307 248.59 112.82 248.846 113.333C248.974 113.845 249.103 114.358 249.103 114.871V135.768C249.103 136.281 248.847 136.794 248.461 137.051C247.308 137.307 246.667 137.307 246.154 137.051Z" fill="#31A8FF"/>
</g>
</svg>
