<svg width="292" height="300" viewBox="0 0 292 300" fill="none" xmlns="http://www.w3.org/2000/svg">
<path d="M208.695 209.454C210.358 195.621 209.859 193.592 220.178 195.833L222.797 196.062C230.732 196.424 241.11 194.788 247.208 191.96C260.333 185.878 268.117 175.722 255.174 178.391C225.651 184.473 223.622 174.49 223.622 174.49C254.796 128.298 267.828 69.6627 256.579 55.31C225.899 16.1605 172.791 34.6734 171.902 35.154L171.619 35.2062C165.786 33.9976 159.258 33.2754 151.924 33.157C138.564 32.9377 128.426 36.6546 120.737 42.4793C120.737 42.4793 25.9955 3.50057 30.4031 91.4991C31.3405 110.219 57.2727 233.148 88.2017 196.018C99.5062 182.441 110.431 170.961 110.431 170.961C115.855 174.56 122.351 176.396 129.162 175.737L129.689 175.288C129.523 176.974 129.597 178.623 129.899 180.574C121.932 189.465 124.273 191.026 108.344 194.3C92.2278 197.618 101.696 203.523 107.876 205.066C115.371 206.938 132.708 209.589 144.426 193.211L143.959 195.081C147.084 197.577 146.874 213.028 147.316 224.067C147.761 235.107 148.501 245.409 150.754 251.483C153.007 257.555 155.666 273.2 176.601 268.72C194.098 264.975 207.476 259.587 208.695 209.454Z" fill="black" stroke="black" stroke-width="49.8604"/>
<path d="M255.177 178.389C225.651 184.471 223.622 174.488 223.622 174.488C254.796 128.294 267.828 69.6573 256.582 55.3062C225.901 16.1593 172.791 34.6733 171.904 35.1539L171.619 35.2049C165.787 33.9956 159.258 33.2753 151.921 33.1556C138.561 32.937 128.426 36.6533 120.737 42.4768C120.737 42.4768 25.9936 3.49988 30.4001 91.4977C31.3375 110.219 57.2691 233.148 88.1993 196.017C99.5044 182.441 110.427 170.96 110.427 170.96C115.853 174.559 122.347 176.395 129.157 175.736L129.686 175.287C129.521 176.973 129.595 178.622 129.897 180.575C121.929 189.464 124.27 191.025 108.342 194.3C92.2243 197.617 101.693 203.522 107.875 205.065C115.369 206.937 132.708 209.588 144.423 193.211L143.955 195.08C147.078 197.577 149.27 211.323 148.902 223.784C148.535 236.245 148.289 244.8 150.749 251.483C153.21 258.164 155.662 273.2 176.601 268.719C194.097 264.974 203.165 255.271 204.427 239.085C205.321 227.579 207.347 229.28 207.475 218.991L209.1 214.122C210.973 198.523 209.397 193.49 220.177 195.831L222.796 196.061C230.731 196.422 241.114 194.786 247.209 191.958C260.332 185.876 268.115 175.722 255.176 178.389H255.177Z" fill="#336791"/>
<path d="M145.691 187.331C144.878 216.355 145.894 245.583 148.739 252.685C151.584 259.789 157.674 273.605 178.615 269.125C196.111 265.379 202.476 258.131 205.239 242.131C207.273 230.361 211.195 197.669 211.698 190.971" stroke="white" stroke-width="16.6201" stroke-linecap="round" stroke-linejoin="round"/>
<path d="M120.59 41.8287C120.59 41.8287 25.7825 3.13237 30.1901 91.1303C31.1275 109.851 57.0609 232.785 87.9906 195.653C99.2933 182.074 109.515 171.424 109.515 171.424" stroke="white" stroke-width="16.6201" stroke-linecap="round" stroke-linejoin="round"/>
<path d="M171.801 34.7659C168.519 35.7934 224.539 14.3153 256.375 54.9399C267.622 69.2915 254.59 127.928 223.415 174.123" stroke="white" stroke-width="16.6201" stroke-linecap="round" stroke-linejoin="round"/>
<path d="M223.414 174.124C223.414 174.124 225.446 184.11 254.972 178.024C267.908 175.356 260.123 185.512 247.002 191.597C236.234 196.588 212.093 197.866 211.699 190.971C210.684 173.177 224.404 178.583 223.414 174.124ZM223.414 174.124C222.519 170.109 216.383 166.168 212.325 156.341C208.781 147.765 163.726 81.9869 224.82 91.756C227.057 91.2935 208.886 33.7245 151.71 32.7885C94.5488 31.8523 96.4241 102.989 96.4241 102.989" stroke="white" stroke-width="16.6201" stroke-linecap="round" stroke-linejoin="bevel"/>
<path d="M129.688 180.209C121.719 189.098 124.062 190.659 108.133 193.935C92.0153 197.252 101.485 203.157 107.665 204.699C115.16 206.573 132.498 209.223 144.213 192.842C147.78 187.855 144.192 179.897 139.292 177.867C136.924 176.888 133.757 175.661 129.688 180.209Z" stroke="white" stroke-width="16.6201" stroke-linecap="round" stroke-linejoin="round"/>
<path d="M129.166 180.054C128.364 174.827 130.886 168.607 133.59 161.331C137.654 150.413 147.028 139.493 139.528 104.86C133.939 79.052 96.4473 99.4893 96.4237 102.989C96.4009 106.487 98.1195 120.726 95.7974 137.308C92.7675 158.945 109.584 177.244 128.949 175.372" stroke="white" stroke-width="16.6201" stroke-linecap="round" stroke-linejoin="round"/>
<path d="M120.246 102.464C120.076 103.659 122.436 106.849 125.514 107.275C128.587 107.703 131.216 105.21 131.383 104.016C131.55 102.821 129.192 101.505 126.114 101.077C123.04 100.648 120.408 101.272 120.246 102.464Z" fill="white" stroke="white" stroke-width="5.54"/>
<path d="M213.822 100.027C213.989 101.223 211.632 104.412 208.554 104.838C205.479 105.266 202.85 102.774 202.682 101.58C202.518 100.384 204.877 99.0678 207.952 98.6399C211.027 98.212 213.656 98.8346 213.822 100.027Z" fill="white" stroke="white" stroke-width="2.77"/>
<path d="M224.82 91.7559C225.326 101.131 222.798 107.517 222.479 117.497C222.007 132.003 229.404 148.607 218.258 165.231" stroke="white" stroke-width="16.6201" stroke-linecap="round" stroke-linejoin="round"/>
</svg>
