<svg width="300" height="300" viewBox="0 0 300 300" fill="none" xmlns="http://www.w3.org/2000/svg">
<g clip-path="url(#clip0_231_57)">
<path d="M150 297.05C231.213 297.05 297.05 231.213 297.05 150C297.05 68.7873 231.213 2.95117 150 2.95117C68.7873 2.95117 2.95117 68.7873 2.95117 150C2.95117 231.213 68.7873 297.05 150 297.05Z" fill="white" stroke="#4E2DF3" stroke-width="6"/>
<path d="M127.4 71.1622L127.395 71.1711L127.39 71.1799C119.647 86.137 119.859 101.709 127.023 112.393L127.029 112.402L127.035 112.411C128.941 115.286 130.441 116.727 131.962 117.548C133.477 118.365 135.458 118.808 138.804 118.808C141.152 118.808 142.339 118.714 143.261 118.511C144.121 118.323 144.939 117.999 146.491 117.207C153.971 113.292 160.16 104.772 163.435 94.715C166.709 84.664 166.795 73.9191 163.086 65.9771C160.891 61.3053 158.016 58.1765 154.985 56.4666C152.013 54.7888 148.688 54.3517 145.162 55.3629C137.805 57.4737 131.774 62.6054 127.4 71.1622Z" stroke="#4E2DF3" stroke-width="8"/>
<path d="M143.651 74.2953C140.638 75.1624 138.242 77.2683 136.563 80.5634C133.672 86.1626 133.647 92.2079 136.512 96.4939C137.97 98.6994 139.23 99.3682 141.799 99.3682C143.478 99.3682 143.973 99.2443 145.134 98.6492C151.235 95.4534 154.569 85.1964 151.581 78.7796C149.852 75.0881 146.838 73.3786 143.651 74.2953Z" fill="#4E2DF3"/>
<path d="M143.651 74.2953C140.638 75.1624 138.242 77.2683 136.563 80.5634C133.672 86.1626 133.647 92.2079 136.512 96.4939C137.97 98.6994 139.23 99.3682 141.799 99.3682C143.478 99.3682 143.973 99.2443 145.134 98.6492C151.235 95.4534 154.569 85.1964 151.581 78.7796C149.852 75.0881 146.838 73.3786 143.651 74.2953Z" stroke="#4E2DF3"/>
<path d="M208.059 79.0824L208.04 79.0875L208.021 79.0923C201.725 80.6973 195.183 84.8484 189.703 90.5421C184.234 96.2247 180.075 103.184 178.304 110.078C176.746 116.18 176.751 120.095 177.996 124.482L177.998 124.49C179.187 128.71 181.375 131.852 184.433 134.019L184.436 134.022C185.621 134.864 186.059 135.061 186.632 135.203C187.45 135.404 188.68 135.509 191.587 135.618L191.598 135.619H191.609C196.106 135.814 198.114 135.562 201.337 134.589C212.19 131.281 222.581 121.061 227.934 107.648C228.862 105.309 229.309 103.959 229.562 102.629C229.815 101.292 229.906 99.8016 229.906 97.1484V97.1305V97.1127C229.97 90.0247 228.725 86.4985 225.678 83.0068C224.489 81.6582 222.408 80.1648 221.36 79.6877C219.929 79.1409 217.598 78.7029 214.968 78.5675C212.308 78.4304 209.779 78.6255 208.059 79.0824Z" stroke="#4E2DF3" stroke-width="8"/>
<path d="M205.186 94.7767C199.838 96.1398 194.517 101.67 193.048 107.385C192.42 109.849 192.393 111.578 192.944 113.518C193.468 115.379 194.464 116.847 195.906 117.869C196.902 118.577 197.269 118.656 199.366 118.735C201.175 118.813 202.093 118.708 203.483 118.288C208.044 116.899 212.212 112.705 214.336 107.385C215.044 105.603 215.175 104.947 215.175 102.928C215.2 100.045 214.676 98.3415 213.234 96.6902C212.658 96.0349 211.688 95.3272 211.085 95.0651C209.616 94.4884 206.864 94.3311 205.186 94.7767Z" fill="#4E2DF3"/>
<path d="M205.186 94.7767C199.838 96.1398 194.517 101.67 193.048 107.385C192.42 109.849 192.393 111.578 192.944 113.518C193.468 115.379 194.464 116.847 195.906 117.869C196.902 118.577 197.269 118.656 199.366 118.735C201.175 118.813 202.093 118.708 203.483 118.288C208.044 116.899 212.212 112.705 214.336 107.385C215.044 105.603 215.175 104.947 215.175 102.928C215.2 100.045 214.676 98.3415 213.234 96.6902C212.658 96.0349 211.688 95.3272 211.085 95.0651C209.616 94.4884 206.864 94.3311 205.186 94.7767Z" stroke="#4E2DF3"/>
<path d="M71.2838 122.992C65.5322 117.179 62.3662 108.961 62.3662 98.7579C62.3662 91.6024 64.2266 84.5987 67.2635 78.9793C70.3276 73.3095 74.379 69.411 78.5172 67.8456C80.6248 67.0643 83.4296 66.9837 86.3064 67.732C89.1749 68.4781 91.7625 69.9585 93.4844 71.8631L93.4992 71.8794L93.5143 71.8956C98.7485 77.5564 101.75 85.8081 101.75 95.9448C101.75 106.35 98.6846 114.913 93.1972 121.018L71.2838 122.992ZM71.2838 122.992L71.2913 123M71.2913 123C73.2221 124.961 74.8685 126.088 76.4529 126.714C78.0067 127.327 79.7653 127.561 82.0886 127.329L82.1254 127.326M71.2913 123L82.1254 127.326M82.1254 127.326L82.1622 127.323M82.1622 127.323C86.1032 127.003 89.2408 125.413 93.1957 121.019L82.1622 127.323Z" stroke="#4E2DF3" stroke-width="8"/>
<path d="M80.6725 87.2381C77.5256 88.4115 75.1289 92.7964 75.1289 97.3666C75.1289 100.599 76.1501 103.317 78.1091 105.272C79.4012 106.568 80.5891 107.043 82.2563 106.877C83.7985 106.754 84.9864 106.095 86.2993 104.654C88.1541 102.616 89.1336 99.816 89.1336 96.5432C89.1336 93.3523 88.175 90.6348 86.3827 88.7203C85.0073 87.2174 82.4647 86.5792 80.6725 87.2381Z" fill="#4E2DF3"/>
<path d="M80.6725 87.2381C77.5256 88.4115 75.1289 92.7964 75.1289 97.3666C75.1289 100.599 76.1501 103.317 78.1091 105.272C79.4012 106.568 80.5891 107.043 82.2563 106.877C83.7985 106.754 84.9864 106.095 86.2993 104.654C88.1541 102.616 89.1336 99.816 89.1336 96.5432C89.1336 93.3523 88.175 90.6348 86.3827 88.7203C85.0073 87.2174 82.4647 86.5792 80.6725 87.2381Z" stroke="#4E2DF3"/>
<path d="M239.241 144.107L239.22 144.111L239.2 144.114C229.067 145.865 218.844 152.978 212.094 163.462L212.087 163.473C209.107 168.067 207.799 172.462 207.799 177.575C207.799 182.708 209.16 186.146 211.368 188.429C213.61 190.746 217.245 192.414 222.854 192.924H222.862L222.87 192.925C228.123 193.424 234.389 191.768 240.436 188.269C246.449 184.789 251.936 179.658 255.649 173.673L255.653 173.667C262.399 162.836 261.533 152.91 255.842 147.431L255.838 147.427C254.488 146.124 252.148 144.932 249.056 144.256C246.015 143.592 242.552 143.499 239.241 144.107Z" stroke="#4E2DF3" stroke-width="8"/>
<path d="M235.524 158.778C231.67 159.446 227.91 162.116 225.459 165.932C224.317 167.696 223.793 169.437 223.793 171.44C223.793 175.399 225.912 177.592 230.099 177.974C234.359 178.379 239.689 175.279 242.449 170.82C244.924 166.838 244.853 162.712 242.306 160.256C240.926 158.921 238.118 158.301 235.524 158.778Z" fill="#4E2DF3"/>
<path d="M235.524 158.778C231.67 159.446 227.91 162.116 225.459 165.932C224.317 167.696 223.793 169.437 223.793 171.44C223.793 175.399 225.912 177.592 230.099 177.974C234.359 178.379 239.689 175.279 242.449 170.82C244.924 166.838 244.853 162.712 242.306 160.256C240.926 158.921 238.118 158.301 235.524 158.778Z" stroke="#4E2DF3"/>
<mask id="mask0_231_57" style="mask-type:alpha" maskUnits="userSpaceOnUse" x="58" y="151" width="116" height="121">
<path d="M92.63 182.784L92.6237 182.789L92.6175 182.793C89.8437 184.774 86.0231 188.083 82.5128 191.569C80.8021 193.267 79.3417 194.834 78.2543 196.107C77.6656 196.796 77.311 197.254 77.1274 197.498C77.1132 197.591 77.1146 197.711 77.1529 197.858C77.1859 197.986 77.2326 198.066 77.2572 198.101C77.2575 198.101 77.2579 198.102 77.2582 198.102C77.2737 198.111 77.292 198.119 77.3133 198.13C77.3951 198.172 77.5375 198.237 77.7591 198.327C78.2151 198.51 78.9762 198.776 80.207 199.105C82.7732 199.794 86.597 200.561 92.7177 201.539C103.908 203.307 113.754 205.236 122.687 210.177C131.773 215.204 138.334 222.461 145.226 230.751C147.745 233.764 149.62 235.867 151.116 237.377C151.881 238.15 152.464 238.682 152.89 239.044C154.032 235.727 155.018 229.078 154.129 217.854L154.127 217.838L154.126 217.823C152.699 199.443 149.586 188.394 145.767 181.751C142.516 176.097 138.448 173.012 131.721 171.263L131.71 171.26L131.699 171.257C126.982 170.024 119.434 170.009 115.137 171.086C113.937 171.398 110.271 172.825 105.131 175.434C100.266 177.905 95.5963 180.662 92.63 182.784Z" fill="black"/>
<path d="M152.107 240.78C152.1 240.79 152.096 240.795 152.096 240.795M92.63 182.784L92.6237 182.789L92.6175 182.793C89.8437 184.774 86.0231 188.083 82.5128 191.569C80.8021 193.267 79.3417 194.834 78.2543 196.107C77.6656 196.796 77.311 197.254 77.1274 197.498C77.1132 197.591 77.1146 197.711 77.1529 197.858C77.1859 197.986 77.2326 198.066 77.2572 198.101C77.2575 198.101 77.2579 198.102 77.2582 198.102C77.2737 198.111 77.292 198.119 77.3133 198.13C77.3951 198.172 77.5375 198.237 77.7591 198.327C78.2151 198.51 78.9762 198.776 80.207 199.105C82.7732 199.794 86.597 200.561 92.7177 201.539C103.908 203.307 113.754 205.236 122.687 210.177C131.773 215.204 138.334 222.461 145.226 230.751C147.745 233.764 149.62 235.867 151.116 237.377C151.881 238.15 152.464 238.682 152.89 239.044C154.032 235.727 155.018 229.078 154.129 217.854L154.127 217.838L154.126 217.823C152.699 199.443 149.586 188.394 145.767 181.751C142.516 176.097 138.448 173.012 131.721 171.263L131.71 171.26L131.699 171.257C126.982 170.024 119.434 170.009 115.137 171.086C113.937 171.398 110.271 172.825 105.131 175.434C100.266 177.905 95.5963 180.662 92.63 182.784Z" stroke="#4E2DF3" stroke-width="38"/>
</mask>
<g mask="url(#mask0_231_57)">
<path d="M109.567 115.807L108.238 114.99L52.5059 205.689L53.8347 206.505L109.567 115.807Z" fill="#4E2DF3"/>
<path d="M109.567 115.807L108.238 114.99L52.5059 205.689L53.8347 206.505L109.567 115.807Z" stroke="#4E2DF3"/>
<path d="M110.897 116.623L110.233 116.215L54.501 206.913L55.1654 207.321L110.897 116.623Z" fill="#4E2DF3"/>
<path d="M110.897 116.623L110.233 116.215L54.501 206.913L55.1654 207.321L110.897 116.623Z" stroke="#4E2DF3"/>
<path d="M112.889 117.848L112.224 117.439L56.4922 208.138L57.1566 208.546L112.889 117.848Z" fill="#4E2DF3"/>
<path d="M112.889 117.848L112.224 117.439L56.4922 208.138L57.1566 208.546L112.889 117.848Z" stroke="#4E2DF3"/>
<path d="M116.213 119.889L115.549 119.48L59.8164 210.18L60.4808 210.588L116.213 119.889Z" fill="#4E2DF3"/>
<path d="M116.213 119.889L115.549 119.48L59.8164 210.18L60.4808 210.588L116.213 119.889Z" stroke="#4E2DF3"/>
<path d="M120.199 122.339L117.541 120.706L61.8086 211.404L64.4663 213.037L120.199 122.339Z" fill="#4E2DF3"/>
<path d="M120.199 122.339L117.541 120.706L61.8086 211.404L64.4663 213.037L120.199 122.339Z" stroke="#4E2DF3"/>
<path d="M121.528 123.155L120.863 122.747L65.1309 213.445L65.7953 213.854L121.528 123.155Z" fill="#4E2DF3"/>
<path d="M121.528 123.155L120.863 122.747L65.1309 213.445L65.7953 213.854L121.528 123.155Z" stroke="#4E2DF3"/>
<path d="M123.524 124.38L122.859 123.972L67.127 214.67L67.7914 215.079L123.524 124.38Z" fill="#4E2DF3"/>
<path d="M123.524 124.38L122.859 123.972L67.127 214.67L67.7914 215.079L123.524 124.38Z" stroke="#4E2DF3"/>
<path d="M125.512 125.605L124.183 124.789L68.4512 215.487L69.78 216.304L125.512 125.605Z" fill="#4E2DF3"/>
<path d="M125.512 125.605L124.183 124.789L68.4512 215.487L69.78 216.304L125.512 125.605Z" stroke="#4E2DF3"/>
<path d="M127.507 126.83L126.843 126.422L71.1104 217.12L71.7748 217.528L127.507 126.83Z" fill="#4E2DF3"/>
<path d="M127.507 126.83L126.843 126.422L71.1104 217.12L71.7748 217.528L127.507 126.83Z" stroke="#4E2DF3"/>
<path d="M130.828 128.871L130.163 128.463L74.4316 219.161L75.0961 219.569L130.828 128.871Z" fill="#4E2DF3"/>
<path d="M130.828 128.871L130.163 128.463L74.4316 219.161L75.0961 219.569L130.828 128.871Z" stroke="#4E2DF3"/>
<path d="M134.151 130.913L133.487 130.505L77.7549 221.203L78.4193 221.611L134.151 130.913Z" fill="#4E2DF3"/>
<path d="M134.151 130.913L133.487 130.505L77.7549 221.203L78.4193 221.611L134.151 130.913Z" stroke="#4E2DF3"/>
<path d="M136.145 132.138L134.816 131.321L79.084 222.02L80.4128 222.836L136.145 132.138Z" fill="#4E2DF3"/>
<path d="M136.145 132.138L134.816 131.321L79.084 222.02L80.4128 222.836L136.145 132.138Z" stroke="#4E2DF3"/>
<path d="M138.139 133.362L137.474 132.954L81.7422 223.652L82.4066 224.061L138.139 133.362Z" fill="#4E2DF3"/>
<path d="M138.139 133.362L137.474 132.954L81.7422 223.652L82.4066 224.061L138.139 133.362Z" stroke="#4E2DF3"/>
<path d="M140.796 134.996L139.467 134.18L83.7344 224.878L85.0632 225.694L140.796 134.996Z" fill="#4E2DF3"/>
<path d="M140.796 134.996L139.467 134.18L83.7344 224.878L85.0632 225.694L140.796 134.996Z" stroke="#4E2DF3"/>
<path d="M144.118 137.037L143.453 136.629L87.7207 227.327L88.3851 227.735L144.118 137.037Z" fill="#4E2DF3"/>
<path d="M144.118 137.037L143.453 136.629L87.7207 227.327L88.3851 227.735L144.118 137.037Z" stroke="#4E2DF3"/>
<path d="M145.447 137.854L144.782 137.445L89.0498 228.144L89.7142 228.552L145.447 137.854Z" fill="#4E2DF3"/>
<path d="M145.447 137.854L144.782 137.445L89.0498 228.144L89.7142 228.552L145.447 137.854Z" stroke="#4E2DF3"/>
<path d="M146.775 138.67L146.111 138.262L90.3789 228.96L91.0433 229.368L146.775 138.67Z" fill="#4E2DF3"/>
<path d="M146.775 138.67L146.111 138.262L90.3789 228.96L91.0433 229.368L146.775 138.67Z" stroke="#4E2DF3"/>
<path d="M150.762 141.12L148.104 139.487L92.3721 230.186L95.0298 231.818L150.762 141.12Z" fill="#4E2DF3"/>
<path d="M150.762 141.12L148.104 139.487L92.3721 230.186L95.0298 231.818L150.762 141.12Z" stroke="#4E2DF3"/>
<path d="M152.755 142.345L152.09 141.937L96.3584 232.635L97.0228 233.043L152.755 142.345Z" fill="#4E2DF3"/>
<path d="M152.755 142.345L152.09 141.937L96.3584 232.635L97.0228 233.043L152.755 142.345Z" stroke="#4E2DF3"/>
<path d="M154.75 143.568L154.086 143.16L98.3535 233.859L99.0177 234.268L154.75 143.568Z" fill="#4E2DF3"/>
<path d="M154.75 143.568L154.086 143.16L98.3535 233.859L99.0177 234.268L154.75 143.568Z" stroke="#4E2DF3"/>
<path d="M156.744 144.794L155.415 143.978L99.6826 234.676L101.011 235.492L156.744 144.794Z" fill="#4E2DF3"/>
<path d="M156.744 144.794L155.415 143.978L99.6826 234.676L101.011 235.492L156.744 144.794Z" stroke="#4E2DF3"/>
<path d="M162.058 148.06L159.4 146.427L103.668 237.125L106.326 238.758L162.058 148.06Z" fill="#4E2DF3"/>
<path d="M162.058 148.06L159.4 146.427L103.668 237.125L106.326 238.758L162.058 148.06Z" stroke="#4E2DF3"/>
<path d="M164.051 149.284L163.386 148.876L107.654 239.574L108.319 239.983L164.051 149.284Z" fill="#4E2DF3"/>
<path d="M164.051 149.284L163.386 148.876L107.654 239.574L108.319 239.983L164.051 149.284Z" stroke="#4E2DF3"/>
<path d="M165.378 150.102L164.715 149.692L108.982 240.392L109.646 240.8L165.378 150.102Z" fill="#4E2DF3"/>
<path d="M165.378 150.102L164.715 149.692L108.982 240.392L109.646 240.8L165.378 150.102Z" stroke="#4E2DF3"/>
<path d="M167.373 151.325L166.708 150.917L110.976 241.615L111.641 242.025L167.373 151.325Z" fill="#4E2DF3"/>
<path d="M167.373 151.325L166.708 150.917L110.976 241.615L111.641 242.025L167.373 151.325Z" stroke="#4E2DF3"/>
<path d="M170.033 152.959L168.704 152.143L112.972 242.841L114.301 243.657L170.033 152.959Z" fill="#4E2DF3"/>
<path d="M170.033 152.959L168.704 152.143L112.972 242.841L114.301 243.657L170.033 152.959Z" stroke="#4E2DF3"/>
<path d="M173.352 155L171.359 153.775L115.627 244.474L117.62 245.698L173.352 155Z" fill="#4E2DF3"/>
<path d="M173.352 155L171.359 153.775L115.627 244.474L117.62 245.698L173.352 155Z" stroke="#4E2DF3"/>
<path d="M174.682 155.817L174.018 155.409L118.286 246.108L118.95 246.516L174.682 155.817Z" fill="#4E2DF3"/>
<path d="M174.682 155.817L174.018 155.409L118.286 246.108L118.95 246.516L174.682 155.817Z" stroke="#4E2DF3"/>
<path d="M178.005 157.858L177.341 157.45L121.608 248.149L122.273 248.557L178.005 157.858Z" fill="#4E2DF3"/>
<path d="M178.005 157.858L177.341 157.45L121.608 248.149L122.273 248.557L178.005 157.858Z" stroke="#4E2DF3"/>
<path d="M179.997 159.083L178.669 158.267L122.937 248.965L124.265 249.782L179.997 159.083Z" fill="#4E2DF3"/>
<path d="M179.997 159.083L178.669 158.267L122.937 248.965L124.265 249.782L179.997 159.083Z" stroke="#4E2DF3"/>
<path d="M181.99 160.309L181.325 159.9L125.593 250.599L126.258 251.007L181.99 160.309Z" fill="#4E2DF3"/>
<path d="M181.99 160.309L181.325 159.9L125.593 250.599L126.258 251.007L181.99 160.309Z" stroke="#4E2DF3"/>
<path d="M186.641 163.166L183.983 161.533L128.251 252.232L130.909 253.864L186.641 163.166Z" fill="#4E2DF3"/>
<path d="M186.641 163.166L183.983 161.533L128.251 252.232L130.909 253.864L186.641 163.166Z" stroke="#4E2DF3"/>
<path d="M187.968 163.983L187.304 163.575L131.572 254.274L132.236 254.682L187.968 163.983Z" fill="#4E2DF3"/>
<path d="M187.968 163.983L187.304 163.575L131.572 254.274L132.236 254.682L187.968 163.983Z" stroke="#4E2DF3"/>
<path d="M191.293 166.023L188.635 164.391L132.903 255.089L135.561 256.723L191.293 166.023Z" fill="#4E2DF3"/>
<path d="M191.293 166.023L188.635 164.391L132.903 255.089L135.561 256.723L191.293 166.023Z" stroke="#4E2DF3"/>
<path d="M193.948 167.657L191.954 166.433L136.222 257.131L138.215 258.356L193.948 167.657Z" fill="#4E2DF3"/>
<path d="M193.948 167.657L191.954 166.433L136.222 257.131L138.215 258.356L193.948 167.657Z" stroke="#4E2DF3"/>
<path d="M195.279 168.474L194.615 168.065L138.883 258.764L139.547 259.172L195.279 168.474Z" fill="#4E2DF3"/>
<path d="M195.279 168.474L194.615 168.065L138.883 258.764L139.547 259.172L195.279 168.474Z" stroke="#4E2DF3"/>
<path d="M196.609 169.29L195.945 168.882L140.213 259.58L140.877 259.988L196.609 169.29Z" fill="#4E2DF3"/>
<path d="M196.609 169.29L195.945 168.882L140.213 259.58L140.877 259.988L196.609 169.29Z" stroke="#4E2DF3"/>
<path d="M199.267 170.923L198.603 170.515L142.871 261.213L143.535 261.621L199.267 170.923Z" fill="#4E2DF3"/>
<path d="M199.267 170.923L198.603 170.515L142.871 261.213L143.535 261.621L199.267 170.923Z" stroke="#4E2DF3"/>
<path d="M201.258 172.148L199.929 171.332L144.197 262.03L145.526 262.847L201.258 172.148Z" fill="#4E2DF3"/>
<path d="M201.258 172.148L199.929 171.332L144.197 262.03L145.526 262.847L201.258 172.148Z" stroke="#4E2DF3"/>
<path d="M204.582 174.189L203.254 173.373L147.521 264.071L148.85 264.888L204.582 174.189Z" fill="#4E2DF3"/>
<path d="M204.582 174.189L203.254 173.373L147.521 264.071L148.85 264.888L204.582 174.189Z" stroke="#4E2DF3"/>
<path d="M208.566 176.64L206.573 175.414L150.841 266.113L152.834 267.338L208.566 176.64Z" fill="#4E2DF3"/>
<path d="M208.566 176.64L206.573 175.414L150.841 266.113L152.834 267.338L208.566 176.64Z" stroke="#4E2DF3"/>
<path d="M209.896 177.456L209.232 177.048L153.5 267.746L154.164 268.154L209.896 177.456Z" fill="#4E2DF3"/>
<path d="M209.896 177.456L209.232 177.048L153.5 267.746L154.164 268.154L209.896 177.456Z" stroke="#4E2DF3"/>
<path d="M211.891 178.681L210.562 177.864L154.83 268.563L156.159 269.379L211.891 178.681Z" fill="#4E2DF3"/>
<path d="M211.891 178.681L210.562 177.864L154.83 268.563L156.159 269.379L211.891 178.681Z" stroke="#4E2DF3"/>
</g>
<path d="M84.0451 170.785L84.0424 170.787C80.421 173.373 75.9848 177.257 72.1158 181.1C68.1602 185.029 65.2098 188.509 64.1942 190.322C60.3656 197.434 62.7526 206.447 69.4436 210.621C72.6899 212.624 77.7361 214.086 90.4035 216.111C101.633 217.885 109.121 219.535 115.545 223.088C122.001 226.66 127.053 231.97 133.892 240.196C139.219 246.572 142.638 250.055 145.603 252.004C148.299 253.776 150.743 254.36 154.524 254.332C157.274 254.304 159.473 253.57 161.272 252.272C163.101 250.952 164.746 248.88 166.072 245.83C168.77 239.626 169.888 229.951 168.836 216.688V216.681C167.347 197.494 163.998 183.858 158.557 174.397C153.238 165.144 145.805 159.68 135.435 156.983L135.43 156.982C128.361 155.135 118.266 155.079 111.498 156.787C108.661 157.513 103.781 159.573 98.4511 162.28C93.1806 164.956 87.8128 168.089 84.0451 170.785Z" stroke="#4E2DF3" stroke-width="8"/>
</g>
<defs>
<clipPath id="clip0_231_57">
<rect width="300" height="300" fill="white"/>
</clipPath>
</defs>
</svg>
