<svg width="300" height="300" viewBox="0 0 300 300" fill="none" xmlns="http://www.w3.org/2000/svg">
<g clip-path="url(#clip0_231_294)">
<mask id="mask0_231_294" style="mask-type:luminance" maskUnits="userSpaceOnUse" x="0" y="0" width="300" height="300">
<path d="M300 0H0V300H300V0Z" fill="white"/>
</mask>
<g mask="url(#mask0_231_294)">
<path d="M75.0126 -0.0126953C33.5942 -0.0126953 0.0126953 33.5689 0.0126953 74.9874V224.988C0.0126953 266.406 33.5942 299.988 75.0126 299.988H225.012C266.431 299.988 300.012 266.406 300.012 224.988V74.9874C300.012 33.5689 266.431 -0.0126953 225.012 -0.0126953H75.0126Z" fill="#F44336"/>
<mask id="mask1_231_294" style="mask-type:luminance" maskUnits="userSpaceOnUse" x="84" y="137" width="72" height="92">
<path d="M84.2432 137.887H155.468V228.906H84.2432V137.887Z" fill="white"/>
</mask>
<g mask="url(#mask1_231_294)">
<mask id="mask2_231_294" style="mask-type:luminance" maskUnits="userSpaceOnUse" x="84" y="137" width="73" height="92">
<path d="M120.223 228.993L156.205 137.887H84.2432L120.223 228.993Z" fill="white"/>
</mask>
<g mask="url(#mask2_231_294)">
<path d="M84.2432 137.887H155.346V228.742H84.2432V137.887Z" fill="#F9AD48"/>
</g>
</g>
<mask id="mask3_231_294" style="mask-type:luminance" maskUnits="userSpaceOnUse" x="102" y="170" width="17" height="59">
<path d="M102.439 170.799H118.646V228.993H102.439V170.799Z" fill="white"/>
</mask>
<g mask="url(#mask3_231_294)">
<path d="M102.439 170.799H119.479V229.494H102.439V170.799Z" fill="#F9AD48"/>
</g>
<mask id="mask4_231_294" style="mask-type:luminance" maskUnits="userSpaceOnUse" x="68" y="17" width="101" height="122">
<path d="M68.792 17.8037H168.59V138.507H68.792V17.8037Z" fill="white"/>
</mask>
<g mask="url(#mask4_231_294)">
<path fill-rule="evenodd" clip-rule="evenodd" d="M82.5483 138.79C82.5483 138.79 69.551 128.187 76.2755 117.619C61.8605 101.292 71.4995 80.6435 82.5483 75.3595C79.4278 61.9148 87.0924 48.0585 105.587 43.6639C105.587 43.6639 124.713 34.7436 116.993 19.2987C116.803 18.9066 116.893 18.4305 117.216 18.1359C117.541 17.8399 118.023 17.7927 118.399 18.0199C135.394 28.2342 131.534 43.6639 131.534 43.6639C150.024 48.0585 162.255 68.1557 154.57 83.5244C165.622 88.8054 176.22 108.495 161.805 124.822C168.529 135.39 154.57 138.79 154.57 138.79" fill="#FDFDFE"/>
</g>
<mask id="mask5_231_294" style="mask-type:luminance" maskUnits="userSpaceOnUse" x="97" y="39" width="40" height="6">
<path d="M97.2656 39.0625H136.719V44.9218H97.2656V39.0625Z" fill="white"/>
</mask>
<g mask="url(#mask5_231_294)">
<mask id="mask6_231_294" style="mask-type:luminance" maskUnits="userSpaceOnUse" x="69" y="17" width="100" height="122">
<path fill-rule="evenodd" clip-rule="evenodd" d="M82.5483 138.791C82.5483 138.791 69.551 128.188 76.2755 117.62C61.8605 101.293 71.4995 80.6446 82.5483 75.3604C79.4278 61.9159 87.0939 48.0594 105.587 43.665C105.587 43.665 124.713 34.7446 116.993 19.2997C116.803 18.9075 116.893 18.4314 117.216 18.1369C117.541 17.841 118.023 17.7936 118.399 18.021C135.394 28.2352 131.534 43.665 131.534 43.665C150.024 48.0594 162.255 68.1568 154.57 83.5253C165.622 88.8065 176.22 108.496 161.805 124.823C168.529 135.392 154.57 138.791 154.57 138.791" fill="white"/>
</mask>
<g mask="url(#mask6_231_294)">
<path fill-rule="evenodd" clip-rule="evenodd" d="M131.533 43.6646C131.533 43.6646 120.06 41.3241 105.587 43.6646C91.1112 46.0069 100.456 39.5235 100.456 39.5235C100.456 39.5235 123.544 37.5429 136.518 43.6646C135.436 45.8269 131.533 43.6646 131.533 43.6646Z" fill="#F0F1F4"/>
</g>
</g>
<mask id="mask7_231_294" style="mask-type:luminance" maskUnits="userSpaceOnUse" x="74" y="117" width="93" height="12">
<path d="M74.6094 117.578H166.016V128.906H74.6094V117.578Z" fill="white"/>
</mask>
<g mask="url(#mask7_231_294)">
<mask id="mask8_231_294" style="mask-type:luminance" maskUnits="userSpaceOnUse" x="69" y="17" width="100" height="122">
<path fill-rule="evenodd" clip-rule="evenodd" d="M82.5483 138.791C82.5483 138.791 69.551 128.188 76.2755 117.62C61.8605 101.293 71.4995 80.6446 82.5483 75.3604C79.4278 61.9159 87.0939 48.0594 105.587 43.665C105.587 43.665 124.713 34.7446 116.993 19.2997C116.803 18.9075 116.893 18.4314 117.216 18.1369C117.541 17.841 118.023 17.7936 118.399 18.021C135.394 28.2352 131.534 43.665 131.534 43.665C150.024 48.0594 162.255 68.1568 154.57 83.5253C165.622 88.8065 176.22 108.496 161.805 124.823C168.529 135.392 154.57 138.791 154.57 138.791" fill="white"/>
</mask>
<g mask="url(#mask8_231_294)">
<path fill-rule="evenodd" clip-rule="evenodd" d="M74.7334 121.084C74.7334 121.084 88.8889 124.042 111.199 124.823C137.931 125.76 165.648 128.666 165.648 128.666L161.807 124.823C161.807 124.823 143.866 122.583 111.199 121.084C78.5572 119.583 76.276 117.619 76.276 117.619L74.7334 121.084Z" fill="#F0F1F4"/>
</g>
</g>
<mask id="mask9_231_294" style="mask-type:luminance" maskUnits="userSpaceOnUse" x="75" y="75" width="88" height="15">
<path d="M75 75H162.11V89.4531H75V75Z" fill="white"/>
</mask>
<g mask="url(#mask9_231_294)">
<mask id="mask10_231_294" style="mask-type:luminance" maskUnits="userSpaceOnUse" x="69" y="17" width="100" height="122">
<path fill-rule="evenodd" clip-rule="evenodd" d="M82.5483 138.79C82.5483 138.79 69.551 128.187 76.2755 117.619C61.8605 101.292 71.4995 80.6435 82.5483 75.3595C79.4278 61.9148 87.0939 48.0585 105.587 43.6639C105.587 43.6639 124.713 34.7436 116.993 19.2987C116.803 18.9066 116.893 18.4305 117.216 18.1359C117.541 17.8399 118.023 17.7927 118.399 18.0199C135.394 28.2342 131.534 43.6639 131.534 43.6639C150.024 48.0585 162.255 68.1557 154.57 83.5244C165.622 88.8054 176.22 108.495 161.805 124.822C168.529 135.39 154.57 138.79 154.57 138.79" fill="white"/>
</mask>
<g mask="url(#mask10_231_294)">
<path fill-rule="evenodd" clip-rule="evenodd" d="M82.5487 75.3584C82.5487 75.3584 134.537 76.8888 154.57 83.5233C159.466 82.2309 161.827 89.2392 161.827 89.2392C131.851 81.6617 105.887 80.0199 76.9532 79.4858L75.1406 75.3584H82.5487Z" fill="#F0F1F4"/>
</g>
</g>
<path d="M169.671 158.127H183.116C191.492 158.127 198.116 152.085 198.116 144.682C198.116 138.837 194.414 135.525 187.595 135.329H168.113L164.411 135.525C156.423 135.72 154.278 136.694 150.966 142.344L148.628 146.436L102.454 224.953V187.351C102.454 169.231 101.479 159.88 98.9459 152.476C95.244 141.955 81.9963 133.967 67.9674 133.967C39.522 133.967 14.9736 158.32 14.9736 186.571C14.9736 206.445 30.3651 222.031 49.6538 222.031C63.6812 222.031 73.6178 215.797 73.6178 206.833C73.6178 201.963 68.7471 197.482 63.4859 197.677L55.3041 197.872C47.1209 198.066 40.6908 191.832 40.6908 184.039C40.6908 170.596 52.5759 157.735 65.0454 157.735C69.9159 157.735 74.2022 161.049 75.9554 166.309C77.3195 170.011 77.5149 172.738 77.904 187.351L79.4634 251.451C79.6572 257.685 80.2416 260.413 81.9963 263.335C84.1386 266.842 89.0093 269.376 93.88 269.376C101.09 269.376 105.571 266.064 111.026 256.711L169.671 158.127Z" fill="white"/>
<path d="M127.26 247.374C127.26 243.943 127.907 240.934 129.201 238.347C130.498 235.756 132.262 233.761 134.492 232.365C136.726 230.971 139.218 230.272 141.969 230.272C144.321 230.272 146.384 230.751 148.158 231.706C149.931 232.663 151.298 233.919 152.253 235.471V230.748H162.483V264.115H152.253V259.392C151.26 260.946 149.876 262.203 148.103 263.157C146.329 264.114 144.266 264.592 141.914 264.592C139.2 264.592 136.726 263.887 134.492 262.474C132.262 261.058 130.498 259.044 129.201 256.431C127.907 253.819 127.26 250.801 127.26 247.374ZM152.253 247.435C152.253 244.884 151.545 242.872 150.129 241.398C148.717 239.922 146.994 239.182 144.96 239.182C142.929 239.182 141.206 239.913 139.79 241.368C138.374 242.821 137.666 244.822 137.666 247.374C137.666 249.925 138.374 251.95 139.79 253.447C141.206 254.941 142.929 255.687 144.96 255.687C146.994 255.687 148.717 254.952 150.129 253.477C151.545 252 152.253 249.987 152.253 247.435Z" fill="white"/>
<path d="M190.225 230.388C194.131 230.388 197.25 231.655 199.581 234.19C201.916 236.721 203.085 240.199 203.085 244.621V264.115H192.916V246C192.916 243.766 192.337 242.031 191.182 240.793C190.026 239.557 188.473 238.938 186.521 238.938C184.568 238.938 183.012 239.557 181.857 240.793C180.701 242.031 180.123 243.766 180.123 246V264.115H169.895V230.748H180.123V235.173C181.157 233.7 182.55 232.534 184.305 231.675C186.063 230.818 188.036 230.388 190.225 230.388Z" fill="white"/>
<path d="M236.51 222.143V250.719C236.51 255.147 235.262 258.555 232.769 260.948C230.279 263.342 226.922 264.537 222.698 264.537C218.274 264.537 214.727 263.283 212.052 260.771C209.382 258.257 208.049 254.69 208.049 250.065H218.211C218.211 251.82 218.568 253.146 219.285 254.045C220.005 254.942 221.043 255.389 222.398 255.389C223.634 255.389 224.591 254.99 225.267 254.192C225.947 253.395 226.286 252.237 226.286 250.719V222.143H236.51Z" fill="white"/>
<path d="M259.952 264.537C256.88 264.537 254.126 264.04 251.694 263.041C249.264 262.045 247.32 260.571 245.865 258.616C244.413 256.663 243.645 254.313 243.564 251.562H254.453C254.612 253.116 255.149 254.302 256.064 255.12C256.98 255.934 258.176 256.341 259.653 256.341C261.167 256.341 262.359 255.993 263.235 255.297C264.114 254.598 264.554 253.63 264.554 252.397C264.554 251.359 264.203 250.504 263.504 249.828C262.809 249.148 261.951 248.589 260.934 248.149C259.922 247.71 258.477 247.213 256.601 246.654C253.892 245.821 251.678 244.984 249.96 244.146C248.247 243.307 246.771 242.073 245.535 240.441C244.302 238.804 243.686 236.671 243.686 234.039C243.686 230.131 245.099 227.074 247.928 224.865C250.76 222.652 254.448 221.544 258.993 221.544C263.621 221.544 267.347 222.652 270.176 224.865C273.008 227.074 274.523 230.154 274.722 234.099H263.657C263.579 232.744 263.081 231.679 262.161 230.901C261.246 230.124 260.07 229.735 258.633 229.735C257.4 229.735 256.403 230.065 255.644 230.724C254.886 231.379 254.508 232.326 254.508 233.562C254.508 234.916 255.144 235.972 256.418 236.73C257.696 237.487 259.691 238.305 262.406 239.184C265.116 240.099 267.317 240.976 269.01 241.813C270.702 242.649 272.166 243.864 273.404 245.458C274.64 247.054 275.259 249.106 275.259 251.616C275.259 254.008 274.65 256.182 273.435 258.135C272.217 260.088 270.453 261.645 268.143 262.804C265.832 263.961 263.102 264.537 259.952 264.537Z" fill="white"/>
</g>
</g>
<defs>
<clipPath id="clip0_231_294">
<rect width="300" height="300" fill="white"/>
</clipPath>
</defs>
</svg>
