<svg xmlns="http://www.w3.org/2000/svg" fill="none" viewBox="0 0 194 58" aria-hidden="true"><path fill="#c40b0b" d="M29 0C12.99 0 0 12.99 0 29c0 16.01 12.99 29 29 29 16.01 0 29-12.99 29-29 .03-16.01-12.96-29-29-29Zm-5.317 45.524c-2.537 0-4.5-.725-5.83-2.175-1.238-1.33-1.903-3.202-1.963-5.619l-.06-4.29c-.061-1.117-.273-1.872-.605-2.265-.272-.302-.755-.514-1.42-.574a.683.683 0 0 1-.604-.665v-3.02c0-.333.242-.635.604-.665.665-.06 1.148-.242 1.42-.574.332-.393.574-1.148.604-2.265l.03-2.69v-.996c0-2.719.665-4.773 1.994-6.223 1.33-1.45 3.263-2.175 5.83-2.175 2.538 0 4.471.725 5.83 2.175 1.33 1.45 1.994 3.535 1.994 6.223v2.628a.638.638 0 0 1-.634.634h-3.716c-.362 0-.634-.271-.664-.634v-2.598c0-.272 0-.513.03-.785-.12-1.903-1.027-2.84-2.719-2.84-1.39 0-2.235.635-2.568 1.934-.06.483-.06 1.087-.12 1.842l-.03.695v.151l-.182 3.444c-.06 1.057-.574 1.963-1.027 2.688-.453.756-1.238 1.27-2.326 1.541 1.118.302 1.903.816 2.326 1.54.453.816.725 1.753.755 2.69l.393 4.44c0 .211.03.393.06.604h.03c0 .272.03.574.091.846.06.242.121.513.242.755.06.151.15.272.242.393l.03.03c.453.634 1.148.936 2.145.936h.241a9.856 9.856 0 0 0 2.296 4.502 8.432 8.432 0 0 1-2.719.362Zm18.458-8.398c0 2.689-.665 4.773-1.994 6.223-1.33 1.45-3.263 2.175-5.83 2.175-2.538 0-4.471-.725-5.83-2.175-1.33-1.45-1.994-3.534-1.994-6.223V33.35a.67.67 0 0 1 .664-.665h3.716a.67.67 0 0 1 .665.665v3.776c0 .272 0 .514-.03.785.12 1.873 1.026 2.81 2.718 2.81 1.813 0 2.719-1.088 2.719-3.232V19.424c0-2.205-.907-3.293-2.719-3.293h-.272a9.652 9.652 0 0 0-2.296-4.44c.876-.242 1.783-.333 2.689-.333 2.537 0 4.47.725 5.83 2.175 1.33 1.45 1.994 3.535 1.994 6.223l-.03 17.37Z"></path><path fill="#b79713" d="M89.487 38.93c0 3.02-.698 5.361-2.093 6.99-1.395 1.63-3.424 2.444-6.12 2.444-2.663 0-4.692-.815-6.119-2.444-1.427-1.629-2.093-3.937-2.093-6.99V19.447c0-3.02.698-5.362 2.093-6.991 1.395-1.629 3.425-2.444 6.12-2.478 2.663 0 4.692.815 6.12 2.444 1.426 1.63 2.092 3.937 2.092 6.991v2.206c0 .815-.602 1.46-1.363 1.46h-2.505c-.73 0-1.364-.645-1.364-1.46v-2.579c0-2.477-.951-3.7-2.853-3.7-1.903 0-2.854 1.223-2.854 3.7v20.261c0 2.444.951 3.632 2.853 3.632 1.903 0 2.854-1.222 2.854-3.632V35.4c0-.78.603-1.459 1.364-1.459h2.505c.76 0 1.363.645 1.363 1.46v3.53Zm5.295-26.473c1.427-1.629 3.52-2.478 6.215-2.478s4.787.815 6.214 2.478c1.427 1.63 2.156 3.97 2.156 6.991v19.515c0 2.987-.729 5.328-2.156 6.991-1.427 1.663-3.519 2.478-6.214 2.444-2.695 0-4.788-.815-6.215-2.478-1.427-1.629-2.156-3.97-2.156-6.99V19.413c.032-2.986.73-5.294 2.156-6.957Zm6.215 30.545c1.902 0 2.853-1.222 2.853-3.7V19.075c0-2.477-.951-3.7-2.853-3.7-1.903 0-2.854 1.223-2.854 3.7v20.261c0 2.444.951 3.666 2.854 3.666Zm20.895-32.581c2.727 0 4.788.78 6.151 2.375 1.363 1.562 2.061 3.87 2.061 6.924V38.69c0 3.055-.698 5.329-2.061 6.924-1.363 1.561-3.424 2.342-6.151 2.342h-7.832c-.476 0-.888-.441-.888-.95V11.37c0-.51.412-.95.888-.95h7.832Zm-3.203 32.173h3.108c.887 0 1.585-.271 2.061-.848.475-.577.729-1.493.729-2.783V19.448c0-1.29-.254-2.206-.729-2.783-.539-.61-1.3-.916-2.061-.848h-3.108v26.777Zm27.332 4.548-.824-6.007h-6.754l-.824 6.007c-.064.475-.444.815-.888.815h-3.234c-.476 0-.888-.408-.888-.95v-.17l5.327-35.602c.063-.475.444-.814.887-.814h6.469c.444 0 .824.34.888.814l5.358 35.602c.095.509-.254 1.018-.729 1.086h-3.932c-.444.034-.793-.306-.856-.78Zm-1.617-11.098-2.663-18.971-2.664 18.971h5.327Zm14.078 11.913h-3.171c-.475 0-.888-.441-.888-.95V11.37c0-.51.413-.95.888-.95h5.327c.412 0 .761.305.856.712l5.486 21.755V11.371c0-.51.412-.95.887-.95h3.108c.475 0 .888.44.888.95v35.601c0 .51-.413.95-.888.95h-4.091c-.412 0-.761-.305-.856-.712l-6.69-26.472v26.2c.064.578-.349 1.019-.856 1.019Zm29.805-.815-.824-6.007h-6.754l-.825 6.007c-.063.475-.443.815-.887.815h-3.235c-.475 0-.887-.408-.887-.95v-.17l5.295-35.602c.063-.475.444-.814.888-.814h6.531c.444 0 .825.34.888.814l5.327 35.602c.095.509-.254 1.018-.729 1.086h-3.9c-.476.034-.825-.34-.888-.78Zm-1.585-11.098-2.664-18.971-2.663 18.971h5.327Z"></path></svg>