<svg xmlns="http://www.w3.org/2000/svg" width="222" height="16" viewBox="0 0 222 16" fill="none"><rect width="16" height="16" fill="white"></rect><path d="M31.7417 15.9904C30.1831 15.9904 28.8226 15.6646 27.6601 15.0131C26.4975 14.3488 25.5969 13.4162 24.9581 12.2154C24.3194 11.0145 24 9.60925 24 7.99959C24 6.37716 24.3194 4.9719 24.9581 3.78382C25.5969 2.58296 26.4975 1.65677 27.6601 1.00524C28.8226 0.340941 30.1831 0.00878906 31.7417 0.00878906C33.4919 0.00878906 34.9418 0.430366 36.0916 1.27352C37.2541 2.11668 38.0015 3.30476 38.3336 4.83776H36.494C36.2513 3.80298 35.7211 3.01093 34.9035 2.4616C34.0859 1.8995 33.032 1.61845 31.7417 1.61845C29.8893 1.61845 28.4329 2.18694 27.3726 3.32392C26.3251 4.4609 25.8013 6.01946 25.8013 7.99959C25.8013 9.97973 26.3251 11.5383 27.3726 12.6753C28.4329 13.8122 29.8893 14.3807 31.7417 14.3807C33.032 14.3807 34.0859 14.1061 34.9035 13.5567C35.7211 12.9946 36.2513 12.1962 36.494 11.1614H38.3336C38.0015 12.6944 37.2541 13.8825 36.0916 14.7257C34.9418 15.5688 33.4919 15.9904 31.7417 15.9904Z" fill="white"></path><path d="M39.4774 15.7604V0.23874H46.7209C48.2794 0.23874 49.5058 0.609217 50.4001 1.35017C51.2943 2.07835 51.7415 3.1259 51.7415 4.49284C51.7415 5.15714 51.5945 5.76396 51.3007 6.31329C51.0197 6.86261 50.5598 7.3289 49.921 7.71216V7.80797C50.4959 7.80797 50.943 7.96127 51.2624 8.26787C51.5818 8.5617 51.7415 8.98327 51.7415 9.5326V15.7604H49.9018V9.24516H41.317V15.7604H39.4774ZM41.317 7.75048H46.5292C47.5896 7.75048 48.4136 7.49498 49.0012 6.98398C49.6016 6.4602 49.9018 5.71924 49.9018 4.76111C49.9018 3.80298 49.6016 3.06842 49.0012 2.55742C48.4136 2.03364 47.5896 1.77175 46.5292 1.77175H41.317V7.75048Z" fill="white"></path><path d="M64.6511 15.7604H53.9967V0.23874H64.6511V1.81007H55.8363V6.94565H64.2487V8.47866H55.8363V14.1891H64.6511V15.7604Z" fill="white"></path><path d="M64.3475 15.7604L71.0352 0.23874H73.1623L79.8308 15.7604H77.9912L75.8833 10.8548H68.2566L66.1487 15.7604H64.3475ZM68.8507 9.24516H75.2893L72.1275 1.8484H72.0317L68.8507 9.24516Z" fill="white"></path><path d="M83.9098 15.7604H82.0702V1.81007H76.3597V0.23874H89.6202V1.81007H83.9098V15.7604Z" fill="white"></path><path d="M96.3595 15.9904C94.8009 15.9904 93.4404 15.6646 92.2778 15.0131C91.1153 14.3488 90.2147 13.4162 89.5759 12.2154C88.9372 11.0145 88.6178 9.60925 88.6178 7.99959C88.6178 6.37716 88.9372 4.9719 89.5759 3.78382C90.2147 2.58296 91.1153 1.65677 92.2778 1.00524C93.4404 0.340941 94.8009 0.00878906 96.3595 0.00878906C97.9308 0.00878906 99.2977 0.340941 100.46 1.00524C101.623 1.65677 102.517 2.58296 103.143 3.78382C103.782 4.9719 104.101 6.37716 104.101 7.99959C104.101 9.60925 103.782 11.0145 103.143 12.2154C102.504 13.4162 101.604 14.3488 100.441 15.0131C99.2914 15.6646 97.9308 15.9904 96.3595 15.9904ZM96.3595 14.3807C98.1735 14.3807 99.6043 13.8122 100.652 12.6753C101.699 11.5383 102.223 9.97973 102.223 7.99959C102.223 6.00668 101.699 4.44812 100.652 3.32392C99.6171 2.18694 98.1863 1.61845 96.3595 1.61845C94.5454 1.61845 93.1146 2.18694 92.0671 3.32392C91.0195 4.44812 90.4957 6.00668 90.4957 7.99959C90.4957 9.9925 91.0195 11.5574 92.0671 12.6944C93.1146 13.8186 94.5454 14.3807 96.3595 14.3807Z" fill="white"></path><path d="M105.786 15.7604V0.23874H113.029C114.588 0.23874 115.814 0.609217 116.709 1.35017C117.603 2.07835 118.05 3.1259 118.05 4.49284C118.05 5.15714 117.903 5.76396 117.609 6.31329C117.328 6.86261 116.868 7.3289 116.23 7.71216V7.80797C116.804 7.80797 117.252 7.96127 117.571 8.26787C117.89 8.5617 118.05 8.98327 118.05 9.5326V15.7604H116.21V9.24516H107.626V15.7604H105.786ZM107.626 7.75048H112.838C113.898 7.75048 114.722 7.49498 115.31 6.98398C115.91 6.4602 116.21 5.71924 116.21 4.76111C116.21 3.80298 115.91 3.06842 115.31 2.55742C114.722 2.03364 113.898 1.77175 112.838 1.77175H107.626V7.75048Z" fill="white"></path><path d="M125.728 15.9904C123.774 15.9904 122.215 15.5624 121.053 14.7065C119.89 13.8506 119.251 12.6689 119.136 11.1614H121.11C121.136 12.1834 121.551 12.9755 122.356 13.5376C123.173 14.0997 124.317 14.3807 125.786 14.3807C127.076 14.3807 128.066 14.1444 128.756 13.6717C129.459 13.199 129.81 12.5028 129.81 11.583C129.81 10.1266 128.839 9.21323 126.897 8.84275L124.004 8.28703C122.701 8.03153 121.698 7.55885 120.995 6.869C120.292 6.17915 119.941 5.32322 119.941 4.30121C119.941 2.98538 120.433 1.94421 121.417 1.17771C122.4 0.398429 123.735 0.00878906 125.422 0.00878906C127.134 0.00878906 128.526 0.417591 129.599 1.2352C130.685 2.04002 131.317 3.16423 131.496 4.60781H129.522C129.126 2.6149 127.728 1.61845 125.326 1.61845C124.202 1.61845 123.32 1.84201 122.681 2.28914C122.055 2.72349 121.742 3.34947 121.742 4.16707C121.742 5.49568 122.688 6.34522 124.579 6.7157L127.587 7.30974C128.903 7.56524 129.899 8.04431 130.576 8.74694C131.266 9.44956 131.611 10.3502 131.611 11.4489C131.611 12.8797 131.087 13.9975 130.04 14.8023C128.992 15.5944 127.555 15.9904 125.728 15.9904Z" fill="white"></path><path d="M135.991 15.7604L142.678 0.23874H144.806L151.474 15.7604H149.635L147.527 10.8548H139.9L137.792 15.7604H135.991ZM140.494 9.24516H146.933L143.771 1.8484H143.675L140.494 9.24516Z" fill="white"></path><path d="M158.018 15.9904C156.536 15.9904 155.226 15.6582 154.089 14.9939C152.965 14.3296 152.09 13.3971 151.464 12.1962C150.838 10.9953 150.525 9.59648 150.525 7.99959C150.525 6.40271 150.851 5.00384 151.502 3.80298C152.167 2.60213 153.086 1.66955 154.262 1.00524C155.437 0.340941 156.804 0.00878906 158.362 0.00878906C160.151 0.00878906 161.614 0.430366 162.751 1.27352C163.888 2.1039 164.603 3.29198 164.897 4.83776H162.981C162.776 3.79021 162.278 2.99177 161.486 2.44244C160.694 1.89311 159.653 1.61845 158.362 1.61845C157.162 1.61845 156.114 1.88034 155.22 2.40411C154.326 2.91512 153.629 3.64968 153.131 4.60781C152.646 5.56594 152.403 6.69654 152.403 7.99959C152.403 9.28988 152.646 10.4205 153.131 11.3914C153.629 12.3623 154.313 13.1224 155.181 13.6717C156.063 14.2083 157.066 14.4766 158.19 14.4766C159.11 14.4766 159.94 14.3105 160.681 13.9783C161.422 13.6462 162.01 13.199 162.444 12.6369C162.878 12.0621 163.096 11.4169 163.096 10.7015V9.59009H157.96V8.05708H163.057C163.632 8.05708 164.079 8.21038 164.399 8.51698C164.731 8.81081 164.897 9.23239 164.897 9.78172V15.7604H163.115V13.346H163.019C162.7 14.138 162.074 14.7768 161.141 15.2622C160.221 15.7477 159.18 15.9904 158.018 15.9904Z" fill="white"></path><path d="M177.382 15.7604H166.728V0.23874H177.382V1.81007H168.567V6.94565H176.98V8.47866H168.567V14.1891H177.382V15.7604Z" fill="white"></path><path d="M192.792 15.7604H190.665L180.758 2.51909H180.681V15.7604H178.956V0.23874H181.122L190.99 13.4801H191.067V0.23874H192.792V15.7604Z" fill="white"></path><path d="M202.19 15.9904C200.632 15.9904 199.271 15.6646 198.109 15.0131C196.946 14.3488 196.046 13.4162 195.407 12.2154C194.768 11.0145 194.449 9.60925 194.449 7.99959C194.449 6.37716 194.768 4.9719 195.407 3.78382C196.046 2.58296 196.946 1.65677 198.109 1.00524C199.271 0.340941 200.632 0.00878906 202.19 0.00878906C203.941 0.00878906 205.39 0.430366 206.54 1.27352C207.703 2.11668 208.45 3.30476 208.782 4.83776H206.943C206.7 3.80298 206.17 3.01093 205.352 2.4616C204.535 1.8995 203.481 1.61845 202.19 1.61845C200.338 1.61845 198.882 2.18694 197.821 3.32392C196.774 4.4609 196.25 6.01946 196.25 7.99959C196.25 9.97973 196.774 11.5383 197.821 12.6753C198.882 13.8122 200.338 14.3807 202.19 14.3807C203.481 14.3807 204.535 14.1061 205.352 13.5567C206.17 12.9946 206.7 12.1962 206.943 11.1614H208.782C208.45 12.6944 207.703 13.8825 206.54 14.7257C205.39 15.5688 203.941 15.9904 202.19 15.9904Z" fill="white"></path><path d="M213.34 15.7604V9.89669L207.4 0.23874H209.546L214.279 8.03792H214.356L219.127 0.23874H221.12L215.18 9.85837V15.7604H213.34Z" fill="white"></path></svg>