<svg width="69" height="71" viewBox="0 0 69 71" fill="none" xmlns="http://www.w3.org/2000/svg">
<path d="M29.9962 4.26758C13.4297 4.26758 0 15.9144 0 30.2815C0 43.1468 12.8556 54.809 26.568 69.6741C28.0536 71.3092 31.9387 71.3092 33.4243 69.6741C47.1368 54.809 59.9923 43.1468 59.9923 30.2815C59.9923 15.9144 46.5626 4.26758 29.9962 4.26758Z" fill="#EB6420"/>
<path d="M30.0024 40.6881C36.6289 40.6881 42.0008 36.0294 42.0008 30.2825C42.0008 24.5357 36.6289 19.877 30.0024 19.877C23.3758 19.877 18.0039 24.5357 18.0039 30.2825C18.0039 36.0294 23.3758 40.6881 30.0024 40.6881Z" fill="white"/>
<path d="M62 0.800781V11.2064" stroke="#FACC15" stroke-width="1.6" stroke-linecap="round"/>
<path d="M53.9922 7.73828H65.9907" stroke="#FACC15" stroke-width="1.6" stroke-linecap="round"/>
<path d="M56.3984 2.88086L67.597 12.5927" stroke="#FACC15" stroke-width="1.4" stroke-linecap="round"/>
<path d="M56.3984 12.5927L67.597 2.88086" stroke="#FACC15" stroke-width="1.4" stroke-linecap="round"/>
</svg>
