<svg width="100%" height="100%" viewBox="0 0 1080 231" fill="none" xmlns="http://www.w3.org/2000/svg">
<path d="M220.946 23.5186C252.304 -7.83952 303.145 -7.83952 334.503 23.5186C337.639 26.6544 337.639 31.7385 334.503 34.8743L209.59 159.788C178.232 191.146 128.115 191.87 96.757 160.512C93.6212 157.376 92.8966 151.568 96.0324 148.432L220.946 23.5186Z" fill="#0965FF"></path>
<path d="M2.35186 66.1023C-0.783951 62.9665 -0.783952 57.8824 2.35186 54.7466C33.7099 23.3885 84.5514 23.3885 115.909 54.7466L152.816 91.6528L124.426 120.042C105.611 138.857 75.1066 138.857 56.2917 120.042L2.35186 66.1023Z" fill="#8BBCFF"></path>
<path d="M1015.51 183.68C995.693 183.68 980.074 177.898 968.654 166.334C957.234 154.769 951.524 138.177 951.524 116.557C951.524 94.9367 957.234 78.3444 968.654 66.7801C980.242 55.0481 995.861 49.1822 1015.51 49.1822C1028.78 49.1822 1040.2 51.7799 1049.77 56.9755C1059.34 62.1711 1066.73 69.7968 1071.94 79.8528C1077.31 89.7411 1080 101.976 1080 116.557C1080 138.177 1074.21 154.769 1062.62 166.334C1051.03 177.898 1035.33 183.68 1015.51 183.68ZM1015.76 159.295C1027.35 159.295 1035.83 155.691 1041.21 148.485C1046.75 141.278 1049.52 130.635 1049.52 116.557C1049.52 102.479 1046.75 91.8361 1041.21 84.6293C1035.83 77.255 1027.35 73.5678 1015.76 73.5678C1004.17 73.5678 995.609 77.255 990.067 84.6293C984.693 91.8361 982.006 102.479 982.006 116.557C982.006 130.635 984.693 141.278 990.067 148.485C995.609 155.691 1004.17 159.295 1015.76 159.295Z" fill="#00255D"></path>
<path fill-rule="evenodd" clip-rule="evenodd" d="M863.974 49.1822C877.038 49.1822 888.285 51.7702 897.712 56.9475C907.138 62.1246 914.413 69.724 919.54 79.7439C924.595 89.1563 927.233 100.703 927.46 114.382C927.46 114.389 927.463 114.395 927.467 114.399C927.472 114.404 927.474 114.41 927.474 114.417V115.641C927.476 115.867 927.478 116.093 927.478 116.32C927.478 116.487 927.475 116.653 927.474 116.819V226.84C927.474 229.057 925.677 230.855 923.459 230.855H918.345C918.076 230.855 917.809 230.855 917.542 230.855C906.456 230.855 897.469 221.867 897.469 210.78V179.428C897.469 177.908 895.839 176.93 894.46 177.572C885.728 181.64 875.566 183.677 863.974 183.677C844.46 183.677 829.08 177.914 817.834 166.391C806.589 154.867 800.967 137.864 800.966 116.32C800.966 94.7761 806.589 78.2424 817.834 66.7188C829.245 55.0284 844.625 49.1823 863.974 49.1822ZM864.222 73.4811C852.812 73.4811 844.378 77.1561 838.92 84.5042C833.628 91.6856 830.982 102.291 830.982 116.32C830.982 130.348 833.628 141.424 838.92 148.605C844.378 155.786 852.812 159.376 864.222 159.376C875.633 159.376 883.986 155.787 889.278 148.605C894.735 141.424 897.463 130.348 897.463 116.32C897.463 102.291 894.735 91.6856 889.278 84.5042C883.986 77.1559 875.633 73.4811 864.222 73.4811Z" fill="#00255D"></path>
<path d="M575.615 147.889C574.613 145.217 573.528 142.044 572.359 138.37L550.185 70.2602L547.035 60.5293C545.427 55.5599 540.797 52.1933 535.574 52.1933H519.555C516.816 52.1933 514.881 54.8756 515.746 57.4748L545.805 147.889C548.644 156.406 551.127 163.718 553.967 168.394C556.806 172.903 560.146 176.076 563.987 177.913C567.828 179.75 570.754 180.669 576.767 180.669H576.988C578.376 180.669 579.345 182.044 578.878 183.351L576.767 189.27L572.463 202.595C571.659 205.081 569.345 206.766 566.732 206.766H552.046C540.959 206.766 531.97 215.753 531.97 226.84C531.97 229.057 533.768 230.855 535.985 230.855H570.002C576.015 230.855 580.942 229.936 584.783 228.099C588.624 226.262 591.964 223.089 594.803 218.58C597.642 213.904 600.481 207.306 603.32 198.789L620.421 148.406C620.479 148.234 620.542 148.063 620.6 147.889L650.66 57.4748C651.524 54.8757 649.589 52.1933 646.85 52.1933L630.863 52.1935C625.651 52.1935 621.03 55.5468 619.414 60.5024L603.573 109.107L590.711 148.076C589.73 150.489 588.672 152.348 587.533 153.65C586.245 154.777 584.801 155.355 583.203 155.395C581.604 155.355 580.161 154.777 578.872 153.65C577.703 152.314 576.617 150.394 575.615 147.889Z" fill="#00255D"></path>
<path d="M413.531 8.02976C413.531 5.81241 415.329 4.01489 417.546 4.01489H433.606C440.258 4.01489 445.651 9.40745 445.651 16.0595V150.558C445.651 152.775 447.448 154.572 449.665 154.572H501.859C512.946 154.572 521.933 163.56 521.933 174.647V176.654C521.933 178.871 520.136 180.669 517.918 180.669H437.62C424.316 180.669 413.531 169.884 413.531 156.58V8.02976Z" fill="#00255D"></path>
<path d="M720.963 49.1822C755.414 49.1824 764.85 61.1469 764.927 61.2444C773.619 69.1012 777.965 82.3922 777.965 101.115V176.654C777.965 178.872 776.168 180.669 773.95 180.669H767.701C756.614 180.669 747.626 171.682 747.626 160.595V101.364C747.626 91.3343 745.536 84.2294 741.357 80.0504C737.366 75.7271 729.074 73.5564 721.089 73.5341C713.106 73.5564 705.062 75.727 701.071 80.0504C696.892 84.2294 694.802 91.3343 694.802 101.364V176.654C694.802 178.872 693.004 180.669 690.787 180.669H684.537C673.45 180.669 664.463 171.682 664.463 160.595V101.115C664.463 82.3922 668.809 69.1012 677.501 61.2444C677.571 61.1526 686.71 49.2401 720.963 49.1822Z" fill="#00255D"></path>
</svg>