<svg xmlns="http://www.w3.org/2000/svg" viewBox="0 0 394.01 180.76" aria-hidden="true">
          <g mask="url(#maskBlock)">
            <path fill="#101820" d="M124.9,102.4c7.6,0,13.1,5.8,13.1,14s-5,14-12.7,14a10.3,10.3,0,0,1-7.9-3.4v8.7l-7,3.6V103H117v2.8A10.45,10.45,0,0,1,124.9,102.4Zm-26.8,0a9.89,9.89,0,0,1,9.1,4.8l-4.6,3.5a6.16,6.16,0,0,0-4.8-2.6c-1.6,0-2.8.8-2.8,2.1,0,4.2,12.7,2.2,12.7,11.7,0,5.2-4.5,8.5-10.2,8.5a11.55,11.55,0,0,1-10-5l4.1-3.7a7.63,7.63,0,0,0,6.1,2.9c2,0,3.3-.9,3.3-2.4,0-4.1-12.6-2.5-12.6-12,0-5,4.2-7.9,9.7-7.8Zm116.4,0c8.3,0,13,5.5,13,14.2a7.57,7.57,0,0,1-.1,1.5H208.6c.1,3.6,3,6.1,6.9,6.1a7.92,7.92,0,0,0,6.5-3.3l4.6,3.5c-1,1.9-4.6,5.9-11.2,5.9-8.6,0-14-5.9-14-13.9S206.9,102.4,214.5,102.4Zm-60.2,0a14.21,14.21,0,0,1,7.3,1.9V103h7v26.7h-6.1l-.4-1.4a15.38,15.38,0,0,1-7.8,2c-8.3,0-14.3-5.8-14.3-13.8a13.91,13.91,0,0,1,13.9-14.1Zm44.6-8.9v36.2h-6.6v-2.8a10.39,10.39,0,0,1-7.9,3.5c-7.7,0-13.1-5.8-13.1-14s5-14,12.6-14a10.3,10.3,0,0,1,7.9,3.4V97.2Zm-74.8,15.1c-4.3,0-6.8,3.5-6.8,7.7,0,5,3,7.8,6.8,7.8,4.1,0,6.8-3.2,6.8-7.8S128.1,108.6,124.1,108.6Zm30.3,0c-4.2,0-7.3,3.3-7.3,7.8s3.1,7.7,7.3,7.7,7.3-3.2,7.3-7.7S158.6,108.6,154.4,108.6Zm30.8,0c-4.1,0-6.8,3.2-6.8,7.8s2.9,7.7,6.8,7.7c4.3,0,6.8-3.5,6.8-7.7C192,111.5,189.1,108.6,185.2,108.6Zm29.4-.5a5.66,5.66,0,0,0-5.8,5.4h11.5a5.46,5.46,0,0,0-5.5-5.4Z" transform="translate(40.1 -25.37)"></path>
          </g>
          <mask id="maskBlock">
            <rect fill="#fff" id="maskLeft" x="3.5" y="-30" width="43.89" height="125.64" transform="matrix(0.5, 0.89, -0.89, 0.45, 195.04, 37.91)"></rect>
            <rect fill="#fff" id="maskRight" x="265.6" y="135" width="43.89" height="125.64" transform="translate(265 -241.86) rotate(63)"></rect>
          </mask>
        </svg>