<svg xmlns="http://www.w3.org/2000/svg" width="243" height="47.553" viewBox="0 0 243 47.553">
  <g id="Logo" transform="translate(4484.354 1960.217)">
    <path id="Path_27" data-name="Path 27" d="M-4475.582-1924.884h27.358l-13.68-14.03-13.727,14.03Z" transform="translate(5.004 12.22)" fill="#e85c6a"/>
    <path id="Path_28" data-name="Path 28" d="M-4475.582-1960.217h27.358l-13.68,14.03-13.727-14.03Z" transform="translate(5.004)" fill="#ffd236"/>
    <path id="Path_29" data-name="Path 29" d="M-4464.643-1938.92l-9.854-16.993v.286l0-.286-9.854,16.993,9.854,16.994,0,0v0Z" transform="translate(0 2.469)" fill="#806faf"/>
    <path id="Path_30" data-name="Path 30" d="M-4442.274-1938.92l-9.854-16.993,0,0v0l-9.854,16.993,9.854,16.994v0l0,0Z" transform="translate(12.831 2.469)" fill="#009c78"/>
    <g id="Group_274" data-name="Group 274" transform="translate(-4417.658 -1944.485)">
      <g id="Group_272" data-name="Group 272" transform="translate(16.834 0.001)">
        <path id="Path_31" data-name="Path 31" d="M-4420.5-1943.561v-3.53a2.808,2.808,0,0,0-3.128-3.128h-7.641v16.088h1.607v-6.3h6.033a2.808,2.808,0,0,0,3.128-3.128m-1.607.046a1.441,1.441,0,0,1-1.61,1.608h-5.943v-6.837h5.943a1.441,1.441,0,0,1,1.61,1.608Z" transform="translate(4431.271 1950.219)" fill="#fff"/>
      </g>
      <path id="Path_32" data-name="Path 32" d="M-4421.352-1950.219v16.088h9.34v-1.475h-7.73v-14.613Z" transform="translate(4453.796 1950.219)" fill="#fff"/>
      <g id="Group_273" data-name="Group 273" transform="translate(45.578 0.001)">
        <path id="Path_33" data-name="Path 33" d="M-4401.813-1937.26v-9.83a2.806,2.806,0,0,0-3.128-3.128h-4.937a2.806,2.806,0,0,0-3.127,3.128v9.83a2.807,2.807,0,0,0,3.127,3.128h4.938a2.806,2.806,0,0,0,3.128-3.128m-1.607.046a1.44,1.44,0,0,1-1.608,1.608h-4.76a1.44,1.44,0,0,1-1.608-1.608v-9.922a1.44,1.44,0,0,1,1.608-1.608h4.76a1.44,1.44,0,0,1,1.608,1.608Z" transform="translate(4413.006 1950.219)" fill="#fff"/>
        <path id="Path_34" data-name="Path 34" d="M-4391.713-1943.94v-3.15a2.809,2.809,0,0,0-3.129-3.128h-7.619v16.087h1.608v-6.68h4.357l3.485,6.68h1.788l-3.486-6.68a2.791,2.791,0,0,0,3-3.128m-1.61.044a1.44,1.44,0,0,1-1.608,1.61h-5.922v-6.458h5.922a1.44,1.44,0,0,1,1.608,1.61Z" transform="translate(4419.055 1950.219)" fill="#fff"/>
      </g>
      <path id="Path_35" data-name="Path 35" d="M-4392.2-1950.219v16.088h9.9v-1.475h-8.289v-6.01h6.993v-1.475h-6.993v-5.652h8.289v-1.475Z" transform="translate(4470.519 1950.219)" fill="#fff"/>
      <path id="Path_36" data-name="Path 36" d="M-4434.187-1942.331l3.873-7.888h-1.487l-4.252,5.927-4.252-5.927h-1.486l3.872,7.888-4.051,8.2h1.6l4.318-6.03,4.318,6.03h1.6Z" transform="translate(4441.97 1950.219)" fill="#fff"/>
    </g>
    <g id="Group_275" data-name="Group 275" transform="translate(-4317.116 -1944.484)">
      <path id="Path_37" data-name="Path 37" d="M-4368.625-1945.616h1.61v-1.475a2.809,2.809,0,0,0-3.129-3.128h-4.8a2.809,2.809,0,0,0-3.129,3.128v9.83a2.808,2.808,0,0,0,3.129,3.128h4.8a2.808,2.808,0,0,0,3.129-3.128v-5.116h-5.7v1.474h4.088v3.687a1.44,1.44,0,0,1-1.608,1.608h-4.625a1.44,1.44,0,0,1-1.609-1.608v-9.922a1.44,1.44,0,0,1,1.609-1.608h4.625a1.44,1.44,0,0,1,1.608,1.608Z" transform="translate(4378.077 1950.219)" fill="#fff"/>
      <path id="Path_38" data-name="Path 38" d="M-4356.911-1943.94v-3.15a2.807,2.807,0,0,0-3.128-3.128h-7.62v16.087h1.608v-6.68h4.357l3.486,6.68h1.787l-3.485-6.68a2.791,2.791,0,0,0,2.994-3.128m-1.61.044a1.441,1.441,0,0,1-1.607,1.61h-5.922v-6.458h5.922a1.44,1.44,0,0,1,1.607,1.61Z" transform="translate(4384.053 1950.219)" fill="#fff"/>
      <path id="Path_39" data-name="Path 39" d="M-4346.444-1937.26v-9.83a2.808,2.808,0,0,0-3.129-3.128h-4.937a2.808,2.808,0,0,0-3.128,3.128v9.83a2.808,2.808,0,0,0,3.128,3.128h4.938a2.808,2.808,0,0,0,3.129-3.128m-1.609.046a1.44,1.44,0,0,1-1.608,1.608h-4.759a1.441,1.441,0,0,1-1.61-1.608v-9.92a1.441,1.441,0,0,1,1.61-1.61h4.759a1.44,1.44,0,0,1,1.608,1.61Z" transform="translate(4389.8 1950.219)" fill="#fff"/>
      <path id="Path_40" data-name="Path 40" d="M-4336.3-1950.219h-1.61v13a1.439,1.439,0,0,1-1.608,1.608h-4.514a1.439,1.439,0,0,1-1.608-1.608v-13h-1.608v12.96a2.807,2.807,0,0,0,3.126,3.128h4.693a2.808,2.808,0,0,0,3.128-3.128Z" transform="translate(4395.76 1950.219)" fill="#fff"/>
      <path id="Path_41" data-name="Path 41" d="M-4326.006-1943.561v-3.53a2.808,2.808,0,0,0-3.128-3.128h-7.641v16.088h1.607v-6.3h6.033a2.808,2.808,0,0,0,3.128-3.128m-1.607.046a1.441,1.441,0,0,1-1.61,1.608h-5.943v-6.837h5.943a1.441,1.441,0,0,1,1.61,1.608Z" transform="translate(4401.768 1950.219)" fill="#fff"/>
    </g>
  </g>
</svg>
